<?xml version="1.0" encoding="UTF-8" standalone="no"?>
<svg id="svg4156" xmlns:rdf="http://www.w3.org/1999/02/22-rdf-syntax-ns#" xmlns="http://www.w3.org/2000/svg" height="438.75" viewBox="0 0 959.0625 438.75" width="959.06" version="1.1" xmlns:cc="http://creativecommons.org/ns#" xmlns:dc="http://purl.org/dc/elements/1.1/">
<defs id="defs4160">
<filter id="filter4174" style="color-interpolation-filters:sRGB" height="1.5548" width="1.2535" y="-.27740" x="-.12675">
<feGaussianBlur id="feGaussianBlur4176" stdDeviation="50.627189"/>
</filter>
<clipPath id="clipPath4308" clipPathUnits="userSpaceOnUse">
<path id="path4310" d="m865.04 0.13477c-11.708-0.030768-19.562 0.19583-21.762 0.65039-2.5781 0.53277-9.539 1.83-15.469 2.8828-21.474 3.8127-31.944 6.2825-39.844 9.3984-1.0315 0.40678-7.3595 2.5505-14.063 4.7637-6.7031 2.2132-13.242 4.545-14.531 5.1816-1.2891 0.63666-6.7734 2.9638-12.188 5.1719-11.904 4.8548-25.018 10.601-30.469 13.352-3.7254 1.8794-4.7614 2.3724-9.375 4.4629-9.3695 4.2452-42.186 20.956-44.063 22.438-2.1822 1.7226-8.1325 4.6895-9.4042 4.6895-0.7577 0-1.377 0.31923-1.377 0.70898s-1.3711 1.3086-3.0469 2.043c-1.6758 0.73441-5.69 2.9464-8.9219 4.916-3.2317 1.9696-6.1075 3.582-6.3906 3.582s-1.8979 1.0547-3.5879 2.3438c-1.6901 1.2891-3.3372 2.3438-3.6601 2.3438-0.323 0-2.3931 1.2192-4.5996 2.709-10.41 7.0288-27.063 17.916-27.404 17.916-0.2094 0-3.0476 1.7905-6.3067 3.9785s-6.6201 4.4028-7.4687 4.9219c-1.8597 1.1374-10.294 7.1304-14.936 10.613-1.8447 1.3842-6.6962 5.021-10.781 8.0801-9.8421 7.3704-25.368 19.424-39.717 30.834-10.393 8.2647-18.041 13.76-19.152 13.76-0.2121 0-0.6754-1.1602-1.0293-2.5781-0.3538-1.418-1.2739-3.2791-2.0449-4.1348-1.2611-1.3998-1.1842-1.6208 0.7754-2.2188 10.958-3.3436 8.4124-18.785-3.043-18.459-2.3065 0.0656-2.748-0.28793-2.748-2.2031 0-1.2546 0.3884-2.2812 0.8633-2.2812 0.4748 0 4.2639-4.7939 8.4199-10.652 4.156-5.8584 8.1973-11.182 8.9805-11.832s1.4238-1.5476 1.4238-1.9941c0-0.4466 0.6145-1.5566 1.3652-2.4648 5.53-6.6897 11.754-14.901 11.754-15.518 0.01-0.81457 0.3279-1.2576 4.9121-6.7578 4.1106-4.9318 8.315-10.402 10.23-13.311 0.8486-1.2886 2.8393-3.8828 4.4238-5.7656 4.3098-5.1214 11.696-15.285 13.086-18.006 0.673-1.3173 2.4629-3.7203 3.9765-5.3398 1.5136-1.6196 2.752-3.4466 2.752-4.0586 0-0.61202 0.7631-1.795 1.6953-2.6289 1.4349-1.2836 14.242-19.49 14.242-20.246 0-0.14095 1.7159-2.0786 3.8125-4.3047 2.0174-2.142 3.0889-3.7177 3.3301-4.9062 1.5399-1.5821 5.2783-6.7711 6.4043-8.9688 1.4785-2.8856 1.9221-4.5733 2.6191-9.9297 0.38-2.9202-2.527-2.7976-3.8926 0.16406-0.6626 1.437-1.752 3.668-2.4218 4.957-0.6698 1.2891-2.8847 5.729-4.9219 9.8672s-9.2377 15.405-16.002 25.037c-11.092 15.793-53.441 73.374-69.137 94.002-0.7846 1.0312-2.7685 3.7734-4.4082 6.0938l-2.9805 4.2188-0.832-5.1562c-0.4567-2.8359-0.9772-5.3137-1.1582-5.5059-0.6478-0.68764-6.9747 5.9482-7.0117 7.3535-0.021 0.78888-0.7844-0.0583-1.6973-1.8828-0.9129-1.8246-1.9638-3.8119-2.3359-4.4141-1.2096-1.9571-3.3648-0.14068-3.9942 3.3672-1.4524 8.0962 3.6934 14.03-45.805-52.824-17.94-24.235-35.31-47.649-38.59-52.032-3.2814-4.3828-5.9726-8.669-5.9726-9.5254-0.022-5.6061-10.735-23.421-12.572-20.908-1.4763 2.0189 7.2285 22.115 10.604 24.479 1.0795 0.75615 1.9629 1.9092 1.9629 2.5625s3.0586 4.7833 6.7969 9.1777c9.5198 11.191 11.975 14.406 15.56 20.387 2.9617 4.9394 9.5586 14.101 12.062 16.752 0.6264 0.66329 1.8787 2.4563 2.7813 3.9844 0.9027 1.5281 2.1138 2.7793 2.6933 2.7793s1.4892 0.94922 2.0215 2.1094 3.9964 5.9062 7.6973 10.547c3.7008 4.6406 10.131 13.5 14.289 19.688 4.1581 6.1875 8.9292 12.727 10.602 14.531 1.6723 1.8047 3.2603 3.9141 3.5293 4.6875 0.2689 0.77344 2.4394 3.9956 4.8223 7.1602 3.7553 4.9871 5.9507 10.826 3.5019 9.3125-1.1232-0.69414-6.5515 1.2175-9.7168 3.4219-5.5622 3.8736-2.2186 15.73 4.4356 15.73 2.3675 0 2.3833 0.049 0.9785 2.7656-0.7866 1.5213-1.4297 3.4197-1.4297 4.2188 0 1.9638-0.6366 1.8323-3.1719-0.65626-1.1819-1.1602-4.3733-4.0078-7.0918-6.3281s-5.9125-5.1488-7.0976-6.2852c-1.1851-1.1363-4.6148-3.6394-7.6211-5.5625-3.0062-1.9231-6.2776-4.2537-7.2715-5.1797-0.9939-0.92596-3.531-2.839-5.6367-4.25s-4.5144-3.2128-5.3535-4.0039c-2.6312-2.4808-5.6251-4.8359-15.793-12.426-5.428-4.0517-10.558-7.9363-11.4-8.6328-2.401-1.9863-12.973-8.9098-16.678-10.922-3.7589-2.0413-3.1978-1.6917-17.422-10.807-5.7182-3.6643-11.431-7.2082-12.695-7.875-1.2645-0.66682-2.5098-1.4662-2.7676-1.7773-0.6197-0.74794-10.302-6.6543-10.908-6.6543-0.2596 0-2.2352-1.2063-4.3906-2.6797-5.2706-3.6029-17.867-10.782-33.92-19.334-4.6407-2.4724-9.0704-5.0143-9.8438-5.6484-0.7734-0.63415-6.0468-3.3552-11.719-6.0449-16.776-7.9555-18.727-8.9204-19.219-9.5195-0.2578-0.31405-2.1564-1.1409-4.2187-1.8359-2.0626-0.695-4.4165-1.8079-5.2305-2.4746-0.8141-0.66673-1.7326-1.2129-2.041-1.2129-0.3085 0-3.6499-1.42-7.4258-3.1562s-7.9199-3.4827-9.209-3.8809c-1.2891-0.39818-4.4532-1.7024-7.0313-2.8984-2.578-1.1961-8.0624-3.2659-12.187-4.5977-4.125-1.3318-8.344-2.7826-9.375-3.2246-2.7906-1.1958-7.0853-2.6572-10.781-3.668-1.8047-0.49352-7.5-2.2441-12.656-3.8906-11.81-3.771-17.58-5.4763-29.52-8.7351-42.833-11.689-102.83-5.2669-127.01 13.598-21.081 16.444-20.997 50.82 0.1797 73.887 1.1786 1.2838 2.1426 2.6923 2.1426 3.1309 0 1.0713 14.185 15.047 20.621 20.316 2.8342 2.3203 6.031 5.0625 7.1035 6.0938 1.0725 1.0312 3.3725 2.9297 5.1094 4.2188 1.737 1.2891 4.4464 3.4114 6.0215 4.7168 1.5751 1.3055 5.3945 4.2104 8.4882 6.4551 7.0377 5.1061 17.559 15.67 22.953 23.047 5.4182 7.4096 22.539 24.097 24.105 23.496 0.6726-0.25807 1.2227-0.0748 1.2227 0.40625 0 0.48102 2.4816 3.3156 5.5137 6.2988 3.0321 2.9833 7.8433 9.0098 10.691 13.393 10.29 15.835 21.076 24.375 30.787 24.375 2.8038 0 2.8487 0.0721 2.2441 3.6504-0.3391 2.0073-0.7216 5.7193-0.8496 8.25-0.1279 2.5307-0.5917 5.1806-1.0293 5.8887-4.294 6.9478 0.8723 28.101 9.0469 37.045 3.939 4.3098 4.5382 5.496 4.5742 9.0469 0.085 8.4539 7.2475 20.598 17.416 29.531 5.6399 4.9546 10.668 15.145 10.668 21.633 0 4.6704 7.2926 16.162 16.641 26.234 2.1914 2.3611 3.9844 4.8732 3.9844 5.582 0 0.70885 0.3988 2.0226 0.8867 2.918 0.488 0.89535 1.9935 3.9473 3.3457 6.7832 6.476 13.582 12.093 18.357 27.531 23.402 10.141 3.3139 12.629 4.5425 19.639 9.7031 10.268 7.5601 11.412 8.0344 22.192 9.1894 4.6404 0.49728 8.9681 1.0854 9.6171 1.3086 0.649 0.22322 2.2234 0.0101 3.4981-0.47461 1.7631-0.67032 4.5097-0.19997 11.476 1.9668 13.654 4.2466 29.957 5.4785 36.346 2.7461 1.0312-0.44107 6.1443-1.2791 11.361-1.8613 9.941-1.1094 19.287-3.9846 26.527-8.1602 2.3645-1.3637 6.4957-3.702 9.1797-5.1973 5.2317-2.9145 13.235-11.363 16.914-17.855 1.2428-2.1929 2.9475-4.7514 3.789-5.6856 1.3904-1.5432 4.4609-10.449 8.3028-24.082 1.2831-4.5532 4.4416-18.57 6.9707-30.938 0.9153-4.476 1.9461-7.5273 4.5957-13.594 0.9008-2.0625 2.2146-5.4375 2.9179-7.5 0.7034-2.0625 2.0246-5.1347 2.9375-6.8262 0.913-1.6915 1.6602-3.7001 1.6602-4.4648 0-0.76475 0.4014-2.1242 0.8926-3.0195 4.6659-8.5036 8.5045-28.48 9.0488-47.096 0.4958-16.958 3.1836-33.932 3.1836-20.105 0 0.80173 0.8529 3.329 1.8945 5.6152 3.8677 8.4903 4.7821 37.805 1.8848 60.428-5.4655 42.675 5.6079 83.061 16.227 59.178 6.9546-15.642 7.656-31.565 2.9355-66.678-1.1844-8.8101-1.4394-15.325-1.0273-26.25 0.5513-14.618 0.7648-15.9 4.1816-25.285l1.8672-5.1289 0.5 3.2539c0.2755 1.7898 0.7261 9.582 1 17.316 0.5114 14.438 2.2028 27.589 4.8242 37.5 1.7407 6.5813 5.84 19.801 6.9766 22.5 1.8312 4.3484 4.9522 15.213 9.4258 32.812 2.6214 10.312 5.0889 20.016 5.4843 21.562 7.3265 28.66 36.271 56.746 60.826 59.023 7.9744 0.73975 14.799 1.9192 18 3.1113 7.4225 2.7642 12.636 1.8506 25.781-4.5215 10.034-4.8642 21.28-5.9491 29.932-2.8867 8.361 2.9595 14.897 0.45087 27.166-10.43 1.0175-0.90233 2.221-1.6406 2.6738-1.6406s2.2004-1.0512 3.8848-2.3359c1.6845-1.2848 4.4074-2.6049 6.0508-2.9336 1.6435-0.32869 3.2147-0.96503 3.4922-1.4141 0.2775-0.44902 2.1429-0.81641 4.1445-0.81641s3.9-0.42188 4.2187-0.9375c0.3188-0.51563 1.2273-0.9375 2.0196-0.9375s2.561-0.78223 3.9297-1.7383c1.3686-0.95607 3.6484-2.0185 5.0664-2.3613 1.4179-0.34284 2.5781-0.95862 2.5781-1.3672s0.8856-1.6929 1.9688-2.8555c1.083-1.1626 1.7362-2.3477 1.4511-2.6328-0.2851-0.28511-0.011-1.044 0.6094-1.6875 4.452-4.6206 5.0504-5.9208 5.2148-11.332 0.1799-5.9216 1.632-11.65 2.9532-11.65 0.4409 0 1.069-0.84375 1.3965-1.875 0.3271-1.0312 1.1636-1.875 1.8593-1.875s1.4062-0.31643 1.5781-0.70312c0.4252-0.95689 7.9838-6.778 8.9297-6.877 4.0239-0.42121 9.3408-11.584 10.268-21.557 0.6321-6.8004 4.9715-13.988 8.4453-13.988 0.683 0 1.9864-0.60567 2.8946-1.3457 0.9083-0.74003 3.5336-2.7549 5.8359-4.4766 7.0962-5.3066 10.633-12.485 10.924-22.174 0.2741-9.1385 0.8958-11.963 2.7949-12.691 0.7227-0.2773 1.3145-1.1303 1.3145-1.8965 0-0.76618 0.9492-2.3831 2.1094-3.5918 7.8806-8.2102 8.9191-11.53 7.2636-23.225-1.4765-10.43-3.7476-16.896-7.2285-20.572-4.6615-4.9229-4.1773-5.5621 4.1836-5.5078 7.7511 0.0503 16.612-2.1847 17.465-4.4062 0.2698-0.7029 2.0939-2.1052 4.0527-3.1152 4.4937-2.3174 9.2672-8.0585 14.482-17.418 3.7609-6.7493 12.943-17.393 15.006-17.393 5.8117 0 24.023-17.675 29.781-28.904 3.149-6.1408 11.25-14.608 20.688-21.623 3.873-2.8788 8.9395-7.0259 11.26-9.2168 2.3203-2.191 4.91-3.9871 5.7539-3.9941 0.844-0.006 3.7971-2.3551 6.5625-5.2188 2.7654-2.8636 8.7188-8.9766 13.23-13.586 4.5117-4.6094 8.2031-8.9827 8.2031-9.7168 0-0.73405 0.3164-1.4746 0.7031-1.6465 1.0657-0.47364 5.8594-7.7712 5.8594-8.9199 0-0.55368 0.6327-1.5319 1.4063-2.1738 0.7732-0.6419 1.4062-1.8205 1.4062-2.6191 0-0.79861 0.6588-2.1797 1.4648-3.0703 2.8553-3.155 5.0966-17.581 4.1524-26.732-2.0027-19.412-7.3728-30.301-17.465-35.412-2.1838-1.1059-7.477-3.87-11.764-6.1445-13.71-7.3047-16.7-7.7904-50.9-8.288-4.69-0.06832-9.02-0.10698-12.93-0.11723z"/>
</clipPath>
</defs>
<g id="g4304" clip-path="url(#clipPath4308)">
<path id="path4168" filter="url(#filter4174)" fill="#f00" d="m600.94 436.67c-3.2012-1.1922-10.026-2.372-18.001-3.1117-24.556-2.2779-53.499-30.364-60.826-59.024-0.39544-1.5469-2.8637-11.25-5.4851-21.562-4.4736-17.599-7.5947-28.464-9.4259-32.812-1.1366-2.6991-5.2352-15.919-6.9759-22.5-2.6214-9.9113-4.3134-23.062-4.8248-37.5-0.27394-7.7344-0.72346-15.527-0.99893-17.317l-0.50084-3.2542-1.8674 5.1292c-3.4168 9.3849-3.6289 10.668-4.1803 25.285-0.41206 10.925-0.15707 17.44 1.0273 26.25 4.7205 35.113 4.0195 51.037-2.9351 66.679-10.619 23.883-21.694-16.503-16.228-59.179 2.8973-22.623 1.983-51.937-1.8848-60.428-1.0415-2.2862-1.8936-4.8128-1.8936-5.6145 0-13.826-2.6876 3.1471-3.1834 20.105-0.5443 18.615-4.3825 38.593-9.0484 47.097-0.49127 0.89535-0.89322 2.2536-0.89322 3.0184 0 0.76476-0.74695 2.7744-1.6599 4.4658-0.91295 1.6915-2.2354 4.7629-2.9387 6.8254-0.70333 2.0625-2.0158 5.4375-2.9166 7.5-2.6496 6.0664-3.6814 9.1178-4.5967 13.594-2.5291 12.367-5.6872 26.384-6.9703 30.938-3.8419 13.633-6.9124 22.54-8.3028 24.083-0.84154 0.93411-2.5469 3.4926-3.7898 5.6855-3.6795 6.4923-11.682 14.94-16.914 17.855-2.684 1.4953-6.8146 3.8344-9.1791 5.198-7.24 4.1755-16.587 7.0507-26.528 8.1601-5.2171 0.58224-10.329 1.4195-11.361 1.8605-6.3887 2.7324-22.692 1.5007-36.346-2.7459-6.9667-2.1668-9.7132-2.6376-11.476-1.9672-1.2748 0.48467-2.8488 0.69858-3.4978 0.47536-0.649-0.22321-4.9769-0.81271-9.6175-1.31-10.779-1.1551-11.923-1.6288-22.191-9.1889-7.0092-5.1606-9.4969-6.3899-19.638-9.7038-15.439-5.0451-21.056-9.8195-27.532-23.401-1.3522-2.8359-2.8578-5.8888-3.3457-6.7842-0.48792-0.89535-0.88713-2.2079-0.88713-2.9167 0-0.70885-1.793-3.2206-3.9844-5.5817-9.348-10.072-16.637-21.564-16.64-26.235-0.004-6.4879-5.0295-16.678-10.669-21.633-10.168-8.9328-17.33-21.077-17.415-29.531-0.0357-3.5509-0.6362-4.7384-4.5751-9.0482-8.1746-8.9443-13.339-30.096-9.0454-37.044 0.43762-0.70808 0.90038-3.358 1.0284-5.8888 0.12798-2.5307 0.51015-6.2437 0.84928-8.251 0.60455-3.5783 0.5607-3.6496-2.2431-3.6496-9.7111 0-20.498-8.5401-30.788-24.375-2.8481-4.3828-7.6592-10.41-10.691-13.393-3.0321-2.9833-5.5129-5.8177-5.5129-6.2987s-0.55025-0.66339-1.2228-0.40532c-1.5668 0.60121-18.688-16.087-24.106-23.497-5.376-7.38-15.896-17.94-22.934-23.05-3.094-2.24-6.913-5.15-8.489-6.45-1.575-1.31-4.284-3.43-6.021-4.72s-4.036-3.19-5.108-4.22c-1.073-1.03-4.269-3.77-7.104-6.09-6.436-5.27-20.622-19.247-20.622-20.318 0-0.43858-0.96432-1.8478-2.1429-3.1316-21.176-23.066-21.26-57.442-0.179-73.886 24.184-18.864 84.177-25.288 127.01-13.599 11.942 3.2589 17.707 4.9655 29.531 8.7413 5.1562 1.6465 10.852 3.3975 12.656 3.891 3.696 1.0107 7.9909 2.4718 10.781 3.6677 1.0312 0.44196 5.25 1.8932 9.375 3.225s9.6094 3.4 12.188 4.5961c2.5781 1.1961 5.7422 2.5005 7.0312 2.8987 1.2891 0.39818 5.4332 2.1445 9.2091 3.8807s7.1177 3.1568 7.4262 3.1568c0.30847 0 1.2269 0.54551 2.0409 1.2122 0.81404 0.66673 3.1676 1.7809 5.2301 2.4759s3.9609 1.5206 4.2188 1.8346c0.49185 0.59915 2.4428 1.5656 19.219 9.5212 5.6719 2.6897 10.945 5.4093 11.719 6.0434 0.77344 0.63415 5.2031 3.1759 9.8438 5.6482 16.053 8.5524 28.648 15.733 33.919 19.335 2.1554 1.4734 4.1313 2.6789 4.3908 2.6789 0.60654 0 10.289 5.9057 10.909 6.6536 0.25781 0.31114 1.5034 1.1113 2.7679 1.7781 1.2645 0.66682 6.9777 4.2104 12.696 7.8747 14.224 9.115 13.662 8.7663 17.421 10.808 3.705 2.012 14.277 8.935 16.678 10.921 0.84194 0.69653 5.9719 4.5815 11.4 8.6332 10.168 7.5899 13.162 9.9453 15.793 12.426 0.83909 0.7911 3.2485 2.5928 5.3542 4.0039 2.1057 1.411 4.6417 3.3231 5.6356 4.2491 0.99389 0.92595 4.2668 3.257 7.273 5.1801 3.0063 1.9231 6.4356 4.4263 7.6207 5.5626s4.379 3.9645 7.0975 6.2848 5.9098 5.168 7.0917 6.3281c2.5353 2.4886 3.1717 2.6203 3.1717 0.65656 0-0.79904 0.64365-2.6975 1.4303-4.2188 1.4048-2.7166 1.3873-2.7659-0.98011-2.7659-6.6542 0-9.9968-11.857-4.4346-15.73 3.1653-2.2043 8.5939-4.1161 9.7171-3.4219 2.4488 1.5135 0.25255-4.3258-3.5028-9.3129-2.3829-3.1645-4.5527-6.3865-4.8216-7.1599-0.26896-0.77344-1.8573-2.8828-3.5297-4.6875s-6.4428-8.3438-10.601-14.531c-4.1582-6.1875-10.588-15.047-14.289-19.688-3.7008-4.6406-7.1644-9.3867-7.6967-10.547-0.54-1.151-1.45-2.1-2.03-2.1-0.5795 0-1.7922-1.2503-2.6949-2.7784-0.90268-1.5281-2.1538-3.3211-2.7803-3.9844-2.5039-2.6511-9.1013-11.813-12.063-16.753-3.5859-5.9805-6.0406-9.1966-15.56-20.387-3.7383-4.3945-6.7969-8.5244-6.7969-9.1777s-0.88328-1.8065-1.9628-2.5626c-3.375-2.3639-12.08-22.458-10.604-24.477 1.8377-2.5132 12.55 15.301 12.573 20.907 0.004 0.85639 2.691 5.143 5.9724 9.5258s20.647 27.797 38.59 52.031c49.498 66.854 44.353 60.921 45.806 52.825 0.62932-3.5079 2.783-5.3241 3.9926-3.3669 0.37215 0.60216 1.4235 2.5876 2.3364 4.4122 0.91288 1.8246 1.6766 2.6719 1.6971 1.883 0.0366-1.4053 6.3637-8.0402 7.0114-7.3526 0.18102 0.19218 0.70281 2.6697 1.1595 5.5057l0.83041 5.1562 2.9813-4.2188c1.6397-2.3203 3.6233-5.0625 4.4079-6.0938 15.695-20.628 58.045-78.209 69.136-94.002 6.7643-9.6319 13.966-20.898 16.003-25.036 2.0372-4.1382 4.252-8.5786 4.9218-9.8677 0.66981-1.2891 1.76-3.5195 2.4225-4.9565 1.3655-2.9616 4.2727-3.084 3.8927-0.16379-0.69703 5.3563-1.1424 7.0435-2.6208 9.9291-1.4261 2.7834-6.0461 8.3062-6.0461 7.2276 0-0.22376 1.4766-3.2901 3.2812-6.8142 1.8047-3.524 3.2457-7.3008 3.2023-8.3929-0.0565-1.4216-0.59754-0.85765-1.9048 1.9858-1.0042 2.1843-1.75 4.0827-1.6574 4.2187 0.0926 0.13606-0.7145 1.978-1.7936 4.0933s-1.7465 4.6703-1.483 5.6778c0.32958 1.2603-0.71029 3.0947-3.3328 5.8793-2.0965 2.2261-3.8119 4.1627-3.8119 4.3037 0 0.75622-12.808 18.963-14.243 20.247-0.93222 0.83392-1.6949 2.017-1.6949 2.629 0 0.61202-1.2384 2.4378-2.752 4.0574s-3.3026 4.0225-3.9756 5.3398c-1.3898 2.7206-8.777 12.885-13.087 18.006-1.5845 1.8828-3.5752 4.4776-4.4238 5.7662-1.9154 2.9083-6.1199 8.3786-10.23 13.31-4.5842 5.5002-4.9059 5.9427-4.9116 6.7573-0.005 0.61683-6.2248 8.8294-11.755 15.519-0.75078 0.90824-1.365 2.0167-1.365 2.4633 0 0.44659-0.64081 1.3438-1.424 1.9938-0.78321 0.65-4.8244 5.9751-8.9804 11.834-4.156 5.8584-7.9449 10.652-8.4197 10.652-0.47485 0-0.86337 1.0265-0.86337 2.281 0 1.9152 0.4406 2.2685 2.7471 2.2029 11.455-0.32571 14.001 15.115 3.0438 18.459-1.9596 0.59795-2.0374 0.82046-0.77617 2.2203 0.77093 0.85564 1.6912 2.7159 2.0451 4.1338 0.35388 1.418 0.81701 2.5781 1.0292 2.5781 1.1112 0 8.7596-5.4947 19.152-13.759 14.348-11.41 29.875-23.464 39.717-30.835 4.085-3.0591 8.9366-6.6945 10.781-8.0786 4.6416-3.4829 13.076-9.4771 14.936-10.615 0.84864-0.51903 4.2095-2.7339 7.4686-4.9219s6.097-3.9782 6.3065-3.9782c0.34108 0 16.995-10.887 27.405-17.916 2.2065-1.4898 4.276-2.7087 4.599-2.7087 0.32297 0 1.97-1.0547 3.66-2.3438s3.3045-2.3438 3.5876-2.3438c0.28314 0 3.159-1.6115 6.3907-3.5811s7.247-4.1819 8.9228-4.9164c1.6758-0.73441 3.0469-1.6542 3.0469-2.0439 0-0.38976 0.61998-0.70865 1.3777-0.70865 1.2717 0 7.2213-2.9672 9.4035-4.6898 1.8769-1.4816 34.693-18.193 44.062-22.438 4.6138-2.0905 5.6497-2.5837 9.375-4.4631 5.4513-2.7501 18.565-8.4965 30.469-13.351 5.4141-2.2081 10.898-4.5355 12.188-5.1722 1.2891-0.63666 7.8281-2.9684 14.531-5.1816 6.7031-2.2132 13.031-4.3568 14.062-4.7636 7.8992-3.1159 18.369-5.5856 39.844-9.3983 5.9297-1.0528 12.891-2.3501 15.469-2.8829 2.9329-0.60608 15.917-0.8053 34.688-0.53221 34.202 0.49759 37.187 0.98234 50.919 8.2685 4.2866 2.2745 9.5807 5.0403 11.764 6.1462 10.092 5.1107 15.462 15.998 17.465 35.41 0.94416 9.1511-1.2962 23.577-4.1514 26.732-0.80597 0.89059-1.4654 2.2727-1.4654 3.0713 0 0.79861-0.63281 1.9772-1.4062 2.6191-0.77344 0.6419-1.4062 1.6201-1.4062 2.1738 0 1.1487-4.7937 8.4463-5.8594 8.92-0.38671 0.17188-0.70312 0.91309-0.70312 1.6471 0 0.73405-3.6914 5.1059-8.2031 9.7153s-10.466 10.724-13.231 13.587c-2.7654 2.8636-5.7185 5.2116-6.5625 5.2177-0.84397 0.007-3.4329 1.8037-5.7532 3.9946s-7.3876 6.339-11.261 9.2178c-9.437 7.0146-17.537 15.481-20.686 21.621-5.7585 11.23-23.97 28.905-29.782 28.905-2.0626 0-11.246 10.643-15.006 17.392-5.2153 9.3595-9.9892 15.101-14.483 17.418-1.9587 1.0101-3.782 2.4116-4.0517 3.1145-0.85249 2.2216-9.714 4.4579-17.465 4.4076-8.3609-0.0543-8.846 0.58406-4.1845 5.507 3.4809 3.6762 5.7532 10.142 7.2296 20.572 1.6555 11.695 0.61684 15.016-7.2638 23.226-1.1602 1.2087-2.1094 2.8245-2.1094 3.5906 0 0.76618-0.59124 1.6199-1.3139 1.8972-1.8992 0.72877-2.521 3.5523-2.7952 12.691-0.29064 9.6885-3.8274 16.868-10.924 22.175-2.3023 1.7217-4.9292 3.7359-5.8374 4.4759-0.90824 0.74003-2.2101 1.3455-2.8931 1.3455-3.4738 0-7.8136 7.1878-8.4456 13.988-0.92688 9.9728-6.2442 21.136-10.268 21.558-0.94588 0.099-8.5041 5.9194-8.9294 6.8762-0.17188 0.38671-0.88172 0.70312-1.5774 0.70312-0.69572 0-1.5327 0.84375-1.86 1.875-0.32731 1.0312-0.95583 1.875-1.3967 1.875-1.3213 0-2.7734 5.7282-2.9533 11.65-0.16442 5.4112-0.76273 6.7114-5.2147 11.332-0.61998 0.64347-0.89396 1.4032-0.60886 1.6883 0.2851 0.28511-0.3678 1.4696-1.4509 2.6321-1.0831 1.1626-1.9693 2.448-1.9693 2.8566 0 0.40857-1.1602 1.0234-2.5781 1.3662-1.418 0.34282-3.6979 1.4055-5.0666 2.3616-1.3687 0.95605-3.1367 1.7383-3.929 1.7383-0.79231 0-1.7013 0.42187-2.02 0.9375-0.31867 0.51562-2.2171 0.9375-4.2188 0.9375-2.0016 0-3.8664 0.36739-4.1439 0.81641-0.27752 0.44903-1.8492 1.0853-3.4927 1.414-1.6434 0.32869-4.3663 1.6488-6.0507 2.9336s-3.4331 2.336-3.8859 2.336-1.6558 0.73828-2.6733 1.6406c-12.269 10.881-18.804 13.39-27.165 10.43-8.6519-3.0624-19.898-1.978-29.932 2.8861-13.145 6.3721-18.359 7.2868-25.781 4.5226zm-213.15-33.99c7.9879-3.9849 9.4523-23.782 2.741-37.056-1.9553-3.8672-3.9914-7.9614-4.5248-9.0982s-2.4575-2.7729-4.2758-3.6358l-3.306-1.5688-2.6803 3.167c-7.524 8.8902-12.97 32.537-8.8479 38.422 0.84518 1.2067 1.5367 2.948 1.5367 3.8695 0 5.2401 12.837 9.1529 19.357 5.9002zm196.85-1.7042c7.1372-7.4118 8.7341-14.235 5.0825-21.719-1.4992-3.0725-2.4974-5.956-2.2181-6.4079 0.27928-0.4519-0.14524-2.1568-0.94337-3.7887s-1.6863-3.5999-1.9737-4.3733c-0.524-1.4102-1.4645-3.0004-4.5188-7.6407-0.90234-1.3709-1.6406-3.1321-1.6406-3.9139 0-1.7156-4.7169-2.9225-7.7097-1.9726-3.1691 1.0058-4.4122 3.2034-4.4702 7.9022-0.0286 2.3203-1.0948 6.75-2.3692 9.8438-2.5638 6.2239-3.1282 15.553-1.2817 21.188 3.0989 9.4576 4.0241 10.566 11.143 13.353 2.649 1.037 8.8822-0.37636 10.9-2.4714zm29.413-5.327c1.8047-0.49649 4.7987-1.0871 6.6534-1.3125 20.234-2.4592 26.195-26.5 12.115-48.868-5.3808-8.5482-13.749-11.002-17.396-5.1013-1.046 1.6924-13.791 6.8014-17.279 6.9268-2.1492 0.0772-3.8857 4.3339-3.2711 8.0182 1.8992 11.385 6.6852 29.656 8.2906 31.65 0.57397 0.71309 1.7819 2.11 2.6842 3.1043 0.90235 0.99428 1.6406 2.3562 1.6406 3.0266 0 3.0105 2.0322 3.8019 6.5625 2.5556zm-261.5-3.3627c1.9598-1.7736 2.4272-3.622 3.5594-14.074 0.4509-4.1628 1.6094-9.2253 2.5744-11.25 4.1914-8.794 1.5197-15.215-8.428-20.256-3.0318-1.5364-6.5953-3.7977-7.919-5.025-8.3972-7.7863-20.642 2.0416-22.823 18.319-1.1448 8.5413-2.3198 14.384-3.4532 17.17-1.3694 3.3668-1.4672 2.9331 1.3461 5.9687 1.3308 1.4359 2.7018 3.0397 3.0469 3.5639 1.9146 2.9092 6.6809 4.9257 13.149 5.563 3.7913 0.37358 7.7984 1.0641 8.9047 1.5346 2.7281 1.16 7.9601 0.37131 10.043-1.514zm64.824-6.3883c1.7363-2.1537 3.1475-9.0901 2.2991-11.301-1.9503-5.0823-10.305-4.8749-11.557 0.28691-0.32819 1.3527-1.1666 3.2916-1.8631 4.3087-4.2961 6.2734 6.3124 12.67 11.121 6.7053zm134.6-2.0002c0.26-3.54-2.9-8.9-5.24-8.9-4.1867 0-6.1646 6.3303-3.1176 9.9775 3.6864 4.4124 8.0188 3.8536 8.3682-1.0793zm118.96-8.4677c7.5641-3.073 11.214-8.9772 9.7025-15.695-4.1983-18.661-7.6715-29.71-9.5929-30.517-0.40927-0.17188-0.74414-0.78201-0.74414-1.3559 0-10.433-20.024-14.117-25.438-4.6797-4.4805 7.8108 3.3973 39.573 13.602 54.839l1.7067 2.5534 3.424-1.7771c1.8832-0.97741 5.1861-2.493 7.3397-3.3679zm-368.47-2.06c10.051-10.718 13.558-34.332 6.8299-46-0.98325-1.7053-1.7877-3.5765-1.7877-4.1583 0-3.082-4.0777-5.3975-9.5054-5.3975-5.7364 0-7.3696 1.2161-7.3696 5.4874 0 1.0234-0.60008 3.055-1.3335 4.5148-7.7628 15.451-13.652 30.546-13.655 34.998-0.002 3.8672 1.8663 9.375 3.1803 9.375 0.67591 0 4.1264 1.5102 7.6676 3.3561 8.0314 4.1862 10.296 3.8777 15.973-2.1756zm404.09-17.12c2.292-1.5469 4.4771-2.8125 4.8557-2.8125 8.8935 0 3.9948-26.204-6.6788-35.726-16.632-14.838-26.262-8.4957-22.112 14.563 4.9199 27.34 10.568 32.997 23.935 23.976zm-444.05 0.18c0-0.4184 0.78407-1.6023 1.7424-2.631 0.95831-1.0286 2.2547-3.4226 2.8809-5.32 0.62619-1.8974 1.5296-3.6915 2.0076-3.9869 0.478-0.29543 0.8691-1.9888 0.8691-3.7631s0.40562-3.2259 0.90137-3.2259c2.569 0 4.7682-20.393 2.5624-23.759-6.5667-10.022-25.648-0.35646-29.323 14.853-0.37371 1.5469-0.93092 3.0234-1.2382 3.2812-4.3578 3.6557-4.5156 11.752-0.24972 12.811 3.0927 0.76772 11.657 6.9869 13.939 10.122 1.5667 2.1524 5.9078 3.3419 5.9078 1.6187zm-26.07-37.76c6.9827-7.3403 8.4033-10.498 8.1163-18.042-0.28538-7.5-2.8345-13.753-5.6067-13.753-0.90516 0-1.9065-0.42188-2.2252-0.9375-0.86494-1.3995-5.479-1.1314-7.5552 0.43894-1.0009 0.75703-2.5581 1.3898-3.4604 1.4062-0.90234 0.0164-1.6406 0.38912-1.6406 0.82827 0 0.43914-1.2148 2.0696-2.6995 3.6232s-3.8122 5.04-5.1721 7.7476l-2.4726 4.9229 2.2586 4.8133c1.2422 2.6473 2.4701 5.4693 2.7287 6.271 0.25859 0.80173 2.308 1.9952 4.5542 2.6522 2.2462 0.65699 5.1387 1.7554 6.4277 2.441 1.2891 0.68554 2.5145 1.285 2.7233 1.3321 0.20874 0.0472 2.0193-1.638 4.0235-3.7449zm498.85 0.78372c5.6054-7.569 8.0255-28.089 3.491-29.6-0.5305-0.17683-0.96453-0.83442-0.96453-1.4613 0-2.8652-11.027-4.9698-15.323-2.9246-11.251 5.3552-11.768 14.762-1.4564 26.505 1.2366 1.4083 3.0751 4.1285 4.0855 6.0449 2.8118 5.333 6.8587 5.9049 10.168 1.4368zm-305.83 0.30258c1.8401 1.1647 5.8619 1.0735 10.015-0.22719 4.7543-1.4891 15.22-18.065 15.22-24.106 0-0.88537 0.39821-2.0106 0.88492-2.5004 2.2841-2.2988 7.0345-51.047 4.9744-51.047-0.43828 0-1.2952 0.49835-1.9043 1.1074-0.66627 0.66627-3.7097 1.0592-7.6398 0.9863-5.9673-0.11065-6.5861 0.0571-7.1531 1.9394-0.34139 1.1333-1.2008 3.3262-1.9097 4.8731-1.2491 2.7255-9.0228 25.245-10.679 30.938-1.8533 6.368-6.4684 23.958-8.4528 32.217-1.1976 4.9843-0.0668 7.0262 3.2025 5.7832 1.2037-0.45766 2.6872-0.44195 3.443 0.0365zm98.113-2.123c8.4284-1.553 10.576-5.6621 6.7497-12.914-0.41698-0.79036-2.0134-5.023-3.5476-9.4058s-4.5559-12.188-6.7148-17.344c-2.1589-5.1562-4.5579-11.062-5.3311-13.125-3.707-9.8883-10.004-21.223-12.51-22.519-1.4232-0.73594-4.3594-3.142-6.525-5.3468l-3.9374-4.0087 0.61618 4.6875c0.3389 2.5781 0.9842 12.914 1.434 22.969 1.1665 26.076 5.995 48.432 11.985 55.494 2.2057 2.6002 8.8255 3.1638 17.781 1.5137zm-118.49-2.164c1.8511-0.77344 4.6035-1.4062 6.1165-1.4062 2.2492 0 2.9407-0.54458 3.7918-2.986 0.57252-1.6423 1.6124-3.6462 2.3108-4.4531 0.69843-0.80691 1.5578-3.3656 1.9097-5.6859 0.73465-4.8436 11.579-37.232 17.97-53.671 2.06-5.2986 2.0311-5.3398-7.2322-10.325l-6.2156-3.345-3.2242 3.436c-1.7734 1.8898-5.0916 5.7563-7.374 8.5923-2.2823 2.8359-4.5734 5.6365-5.0914 6.2235-9.1143 10.329-20.303 26.724-21.345 31.276-0.58618 2.561-3.53 13.567-5.6944 21.289l-1.3686 4.8831 3.179 2.4247c6.8004 5.1869 15.37 6.6287 22.267 3.7465zm152.46-2.0339c2.3376-0.86082 4.9161-2.1264 5.7302-2.8125 0.81404-0.68605 2.0077-1.2474 2.6526-1.2474 2.0261 0-2.0358-14.005-7.474-25.77-1.4328-3.0998-2.895-6.7961-3.2492-8.2141-0.35422-1.418-1.0653-2.5781-1.5802-2.5781-0.51489 0-0.72702-0.54502-0.4714-1.2112 0.66227-1.7258-0.66911-3.3104-15.265-18.167-14.504-14.763-15.013-15.078-21.086-13.016-2.3601 0.80129-5.5871 1.4569-7.1711 1.4569-1.93 0-2.7248 0.38656-2.4094 1.1719 0.25884 0.64454 3.4111 7.7109 7.005 15.703 9.9771 22.187 15.436 35.471 20.998 51.094l1.335 3.75 5.8997 0.15687c3.2448 0.0862 6.1455 0.40269 6.446 0.70313 0.97324 0.97323 4.2937 0.58166 8.6399-1.0189zm-183.51-5.2318c7.3328-5.7262 10.357-26.394 3.3842-23.128-2.6637 1.2476-5.0882 2.3028-5.3879 2.3449-0.29968 0.0421-3.498 1.463-7.1074 3.1575s-8.5987 3.8169-11.087 4.7163c-6.8336 2.4697-8.0907 4.1073-4.724 6.154 1.4775 0.89828 3.82 2.4095 5.2056 3.3583 4.874 3.3376 17.096 5.4432 19.717 3.3968zm205.58-1.6868c0.51562-0.39793 2.625-1.0041 4.6875-1.3471 2.0625-0.34297 4.8047-0.97024 6.0938-1.394 1.2891-0.42372 4.7695-1.4858 7.7344-2.3601 6.6325-1.9559 6.6843-2.4686 0.46875-4.6364-4.1902-1.4614-12.951-5.9326-19.922-10.167-2.3277-1.414-10.049-6.923-16.899-12.057-4.774-3.5781-7.608-4.3787-5.4188-1.5309 1.2889 1.6767 9.3372 21.756 11.077 27.635 2.1403 7.2326 7.2261 9.6785 12.178 5.8568zm-231.56-11.419c2.5781-0.80254 7.6406-2.733 11.25-4.2898 26.458-11.412 26.669-11.532 28.076-15.964 0.35686-1.1244 3.0916-5.3107 6.0771-9.3029 5.5569-7.4305 7.007-9.1714 13.075-15.696 1.918-2.0625 4.8012-5.6484 6.4071-7.9688 1.6059-2.3203 4.3092-5.417 6.0075-6.8816l3.0877-2.6629-2.3024-1.7543c-1.2663-0.96488-3.7789-2.5054-5.5836-3.4234-1.8047-0.91801-3.8552-2.0792-4.5568-2.5805-6.6321-4.7387-15.523-7.0722-26.945-7.0722-6.3257 0-12.527-0.3901-13.781-0.86689-2.4934-0.94798-8.175 0.00011-10.177 1.6982-0.69247 0.58744-5.4778 3.9801-10.634 7.5393s-10.306 7.1458-11.444 7.9702c-1.1931 0.86422-2.3259 2.9819-2.6751 5.0009-2.0945 12.111-12.614 31.655-18.829 34.981-1.2141 0.64976-2.2074 1.6402-2.2074 2.201 0 1.0166-6.194 3.3511-8.8915 3.3511-2.0013 0-1.7712 1.6375 0.32354 2.3024 0.9595 0.30453 3.2968 2.2314 5.194 4.2819s3.9997 3.7282 4.6721 3.7282c0.67245 0 2.4416 1.0474 3.9315 2.3277 5.5271 4.7493 19.836 6.2228 29.927 3.0817zm276.91-1.2401c5.4802-0.80067 10.388-2.0049 10.905-2.6761 0.5176-0.67118 1.9942-1.5461 3.2812-1.9443 1.2871-0.39818 2.973-1.3227 3.7464-2.0545 0.77344-0.73179 2.2325-1.8972 3.2424-2.5897 2.0037-1.3741 1.1253-2.3911-7.8541-9.0942-3.4523-2.5771-10.131-8.9392-11.795-11.235-5.8306-8.0477-11.719-20.288-11.719-24.36 0-0.97784-0.42188-1.7779-0.9375-1.7779-0.51563 0-0.94075-1.1602-0.94472-2.5781-0.006-2.0503-0.82152-3.039-3.9844-4.8292-2.1874-1.2381-7.985-4.8867-12.883-8.108l-8.9062-5.857-10.268 0.7804c-5.6474 0.42921-10.61 0.56916-11.028 0.31098-0.41774-0.25818-2.0846 0.19161-3.7041 0.99954s-3.462 1.469-4.0942 1.469c-1.0131 0-32.12 15.489-33.205 16.534-0.23321 0.22453 2.298 2.8129 5.625 5.7519s7.7365 7.2061 9.799 9.4824c18.22 20.109 41.183 35.974 57.656 39.835 3.3516 0.78547 7.7812 1.8276 9.8438 2.3158 5.3338 1.2626 6.1394 1.2451 17.223-0.37431zm-418.17-6.9596c0.17593-0.52779 0.91753-0.95961 1.648-0.95961s1.3281-0.81885 1.3281-1.8197 0.42187-2.0804 0.9375-2.3991c2.0524-1.2684-0.07-14.01-2.2693-13.624-0.4747 0.0834-1.6208-1.8444-2.5468-4.284-2.0936-5.5153-2.7808-6.2057-6.6295-6.6597-14.562-1.7179-17.996 15.147-5.7081 28.035 3.2768 3.4369 12.277 4.6 13.24 1.711zm552.28-3.7345c10.875-5.548 10.127-23.066-1.1231-26.295-10.518-3.0185-19.1 2.3561-18.158 11.372 1.3553 12.967 10 19.658 19.281 14.923zm-461.69-2.9555c0.48985-0.45767 1.65-0.83213 2.5781-0.83213 0.92813 0 1.6875-0.32978 1.6875-0.73283s1.9391-1.3054 4.3091-2.0052c4.2458-1.2536 12.566-7.9543 12.566-10.12 0-0.57648 0.34097-1.1888 0.7577-1.3606 0.89093-0.36745 6.7423-8.7985 6.7423-9.7147 0-0.3448 0.61362-1.9563 1.3636-3.5811 5.1998-11.265 6.1251-15.61 3.3239-15.61-1.0312 0-1.875 0.37267-1.875 0.82816 0 0.45548-0.73828 1.0623-1.6406 1.3484-0.90234 0.28617-2.6953 1.1355-3.9844 1.8874-1.2891 0.75193-4.2422 2.0941-6.5625 2.9825-2.3203 0.88847-5.0625 1.9646-6.0938 2.3913-1.0312 0.42677-4.8281 1.8903-8.4375 3.2524-3.6094 1.362-7.8919 3.0717-9.5167 3.7993s-3.5232 1.3405-4.2188 1.362c-0.69552 0.0215-5.4833 1.5314-10.64 3.3554-5.1562 1.824-10.569 3.5467-12.028 3.8283-5.0719 0.97884 3.8272 14.34 9.5511 14.34 0.43084 0 1.7562 0.84375 2.9452 1.875s3.2575 1.8814 4.5966 1.8891c1.3391 0.007 4.1222 0.61857 6.1847 1.3574 3.6696 1.3144 6.6088 1.1255 8.3906-0.53935zm366.61-1.8057c11.108-3.2989 22.904-13.238 17.414-14.674-1.0698-0.27976-1.9451-0.88134-1.9451-1.3368 0-0.45549-0.59677-0.82816-1.3262-0.82816-2.2997 0-16.552-5.6408-27.268-10.792-35.08-16.863-35.9-17.188-34.877-13.818 2.2528 7.4268 6.482 18.047 7.1866 18.047 0.37694 0 1.0662 0.79569 1.5318 1.7682 3.9058 8.1598 17.674 20.014 26.628 22.927 2.0015 0.65111 8.2621 0.0111 12.656-1.2939zm-405.76-16.97c1.4422-0.58808 3.8878-1.5932 5.4347-2.2337 2.6599-1.1012 9.0383-3.2046 34.219-11.284 5.9297-1.9026 11.182-3.8286 11.672-4.28 0.48985-0.45139 1.5445-0.82524 2.3438-0.83076 5.5414-0.0383 41.995-23.179 42.182-26.777 0.0303-0.58168-2.0515-1.0616-4.9339-1.1374-2.7424-0.0722-8.704-0.7795-13.248-1.5719-4.5438-0.79238-9.6125-1.4407-11.264-1.4407-1.6512 0-3.318-0.31584-3.7041-0.70188-1.2621-1.2621-12.358-2.6383-15.632-1.9387-1.7586 0.37575-6.5724 1.133-10.697 1.6827-20.059 2.6732-41.39 9.657-66.807 21.872l-6.8068 3.2712 3.9943 2.3921c2.1969 1.3156 6.848 5.1552 10.336 8.5324 3.4879 3.3772 6.7372 6.1403 7.2205 6.1403 0.48334 0 2.3792 1.5449 4.2129 3.433 5.3949 5.555 7.5552 6.4721 11.478 4.8727zm439.83-0.89747c1.62-0.56 2.95-1.36 2.95-1.77 0-0.40929 1.1258-1.0267 2.5019-1.3721 4.6538-1.168 15.131-9.1874 17.205-13.169 1.0744-2.0625 2.558-4.8047 3.297-6.0938 3.6065-6.2915 2.1584-8.3012-8.9414-12.408-2.8359-1.0494-8.9531-3.716-13.594-5.9258-12.532-5.9675-27.041-10.709-33.195-10.847-9.6716-0.21737-27.58 0.1376-30.017 0.59497-1.3271 0.24908-6.6317 0.72346-11.788 1.0542-5.1562 0.33071-10.008 0.9225-10.781 1.3151-0.77344 0.39258-5.625 0.99354-10.781 1.3355-16.068 1.0655-16.27 1.4883-4.3419 9.0707 13.267 8.4336 15.73 9.8786 19.811 11.627 2.3203 0.99429 7.3356 3.397 11.145 5.3394 3.8095 1.9424 7.6064 3.545 8.4375 3.5614 0.83111 0.0164 2.3418 0.65785 3.3572 1.4254 1.0153 0.76759 3.4221 1.82 5.3484 2.3387s4.1241 1.5648 4.8839 2.3246 1.9506 1.3815 2.6461 1.3815c0.69553 0 2.0968 0.57198 3.1138 1.2711 1.0171 0.69909 4.1695 2.0199 7.0055 2.9351 2.8359 0.91521 6.2109 2.2143 7.5 2.8868 7.1438 3.7269 18.363 5.1749 24.235 3.1278zm-241.97-22.12c3.0845-3.2706 3.2342-3.7277 2.686-8.2031-1.9266-15.729-2.5352-22.593-2.1377-24.113 0.70659-2.702-1.5186-2.0302-4.9286 1.488-1.7101 1.7644-4.074 3.4501-5.2532 3.746-1.1792 0.29595-4.187 1.4613-6.684 2.5898-5.0307 2.2734-5.7096 2.4496-11.104 2.8823-2.0635 0.1655-4.1729 0.52883-4.6875 0.80739-0.51462 0.27856-5.7872 0.61501-11.717 0.74765-5.9297 0.13265-10.87 0.32946-10.979 0.43736-0.10884 0.10789 2.6334 1.4025 6.0938 2.8768 3.4604 1.4744 9.6666 4.8779 13.792 7.5634 22.175 14.437 28.414 16.076 34.92 9.1779zm79.379-9.7152 20.701-10.469-7.702 0.6355c-18.231 1.5043-35.896-0.21859-47.71-4.6531l-5.7241-2.1488-0.58669 8.9315c-1.4827 22.572 8.0734 24.367 41.022 7.7038zm254.53-13.45c2.7163-3.2729-0.72333-7.8299-5.0839-6.7354-2.304 0.57828-3.4796 5.6641-1.7166 7.427 1.1211 1.1211 5.681 0.65738 6.8006-0.69158zm-623.01-1.0119c2.1684-1.642 1.4513-3.8797-1.7041-5.3174-4.0958-1.8662-6.9042 2.0681-3.7371 5.2352 1.8009 1.8009 3.1447 1.8212 5.4412 0.0822zm634.76-16.572c4.7503-2.1644 2.5269-10.458-3.0938-11.541-4.0235-0.77484-5.3551 6.7331-1.855 10.459 2.3888 2.5427 1.9519 2.4472 4.9487 1.0818zm-649.2-3.5782c2.95-2.95 0.31292-6.4603-3.8586-5.1363-1.8558 0.58899-3.265 4.3518-2.2468 5.9992 0.98078 1.587 4.0958 1.1467 6.1054-0.86295zm368.47-6.1222c0.6137-0.3793 3.6941-0.86705 6.8454-1.0839 9.8381-0.67701 44.965-10 62.987-16.718 13.959-5.2034 26.513-9.5607 39.375-13.667 14.769-4.7151 23.708-7.9307 30.176-10.856 2.6751-1.2097 5.4979-2.1994 6.2728-2.1994 0.77494 0 1.6339-0.364 1.9089-0.8089 0.27496-0.44489 2.5147-1.3661 4.9772-2.0472 6.2534-1.7295 13.24-4.9042 20.501-9.3155 3.4094-2.0713 6.5117-3.7659 6.8942-3.7659 2.3201 0 10.372-9.4909 10.494-12.369 0.33528-7.931-1.8861-20.335-3.6728-20.509-0.37232-0.03628-4.7609-0.23889-9.7524-0.45019-4.9915-0.21129-11.065-0.83-13.496-1.3749-3.9464-0.8844-4.6391-0.78576-6.4537 0.91894-1.118 1.0503-2.5329 1.9097-3.1442 1.9097-0.61129 0-1.1114 0.42188-1.1114 0.9375s-0.79567 0.9375-1.7682 0.9375c-0.97249 0-4.2952 1.6875-7.3838 3.75s-5.9292 3.75-6.3123 3.75c-0.38316 0-3.1273 1.4766-6.0982 3.2812-2.9708 1.8047-6.0211 3.2812-6.7784 3.2812-0.75731 0-3.2334 1.258-5.5024 2.7954-2.269 1.5375-4.7031 2.8031-5.4091 2.8125-0.70598 0.009-3.87 1.5906-7.0312 3.5139s-7.0133 4.1753-8.5601 5.0044c-14.208 7.6161-18.444 9.9692-22.5 12.499-2.5781 1.6081-5.9447 3.5527-7.4813 4.3212-1.5366 0.76855-6.0227 3.5067-9.9692 6.0849-3.9465 2.5781-11.894 7.4297-17.661 10.781-5.7673 3.3516-11.863 6.9375-13.545 7.9688-1.6824 1.0312-6.5049 3.9594-10.717 6.5069-4.2117 2.5476-7.6577 4.9532-7.6577 5.3459 0 0.39268-3.1619 2.2985-7.0264 4.2352s-8.1887 4.466-9.6094 5.6207l-2.583 2.0994 4.8385-1.2503c2.6612-0.6877 5.3406-1.5607 5.9544-1.94zm-84.905 0.556c0.29146-0.47158-1.0547-1.8196-2.9915-2.9955s-3.8588-2.6885-4.2712-3.3613c-0.41234-0.67281-1.2163-1.2233-1.7865-1.2233-0.57023 0-2.3422-0.97813-3.9378-2.1736-1.5955-1.1955-5.4322-3.6002-8.526-5.3438s-7.5234-4.5102-9.8438-6.1481c-2.3203-1.6379-5.4844-3.6271-7.0312-4.4204-1.5469-0.79335-3.6562-2.2378-4.6875-3.21-1.0312-0.97213-2.5078-2.0673-3.2812-2.4336-0.77344-0.36637-2.5504-1.3998-3.9489-2.2964-6.292-4.0343-25.075-15.224-25.555-15.224-0.29319 0-2.3176-1.1332-4.4988-2.5181-2.1812-1.385-12.614-6.9161-23.184-12.291-10.57-5.3754-19.885-10.359-20.699-11.076-0.81404-0.71623-1.8234-1.3022-2.2431-1.3022-0.41965 0-6.6035-3.1641-13.742-7.0312-7.1384-3.8672-13.982-7.0312-15.209-7.0312-1.2264 0-3.2848-0.82993-4.5744-1.8443s-2.635-1.5539-2.9899-1.199-0.93874 0.22587-1.2974-0.28673c-1.9715-2.8175-15.159-8.5394-16.115-6.9922-0.30323 0.49063-2.3549 1.5284-4.5594 2.3062-2.2044 0.77777-5.2055 2.2668-6.669 3.3089s-2.9423 1.8947-3.2863 1.8947c-5.0139 0-3.119 18.294 2.4484 23.638 10.488 10.068 19.814 15.948 27.156 17.123 2.2678 0.36304 7.4983 2.0432 11.623 3.7338 22.911 9.3894 70.775 26.674 79.219 28.608 1.8047 0.41324 6.0234 1.6815 9.375 2.8183s9.0469 2.8476 12.656 3.8018c3.6094 0.95422 10.359 2.8502 15 4.2133 4.6406 1.3631 9.2812 2.597 10.312 2.7421 1.0312 0.14504 2.9297 0.68344 4.2188 1.1964 1.2891 0.513 4.2422 1.2203 6.5625 1.5718 2.3203 0.35151 6.5391 1.4499 9.375 2.4409 6.0093 2.0999 6.2812 2.1391 6.9818 1.0056zm-242.15-10.63c0.33395-0.53316 1.4909-0.73827 2.571-0.4558 1.9964 0.52206 9.8252-1.4351 11.72-2.9299 0.5718-0.45116 2.7271-1.124 4.7896-1.4952 2.0625-0.37118 4.1719-1.0074 4.6875-1.4138 0.51562-0.40637 1.9922-1.0352 3.2812-1.3973 2.032-0.57086 6.1308-2.1193 22.5-8.5002 1.8047-0.70348 5.918-2.2028 9.1406-3.3318 5.2976-1.856 5.8594-2.3036 5.8594-4.6694 0-4.5336-6.5801-21.453-8.795-22.615-1.0924-0.57294-3.9308-2.6571-6.3075-4.6314l-4.3212-3.5897-6.6003 1.829c-3.6302 1.006-7.5919 2.2072-8.8038 2.6694-1.212 0.46223-3.891 1.3512-5.9535 1.9756-2.0625 0.62433-5.0156 1.6913-6.5625 2.371s-8.0859 3.374-14.531 5.9874c-6.4453 2.6133-16.127 7.0029-21.515 9.7545l-9.7959 5.003-1.2579 4.635c-2.9216 10.765-0.1361 19.849 6.7355 21.964 3.5678 1.0983 22.333 0.15853 23.159-1.1597zm579.59-0.37463c1.9984-0.69485 4.3539-1.2634 5.2344-1.2634 4.6514 0 8.7728-5.8824 8.8608-12.647l0.0838-6.4433-27.287-13.789c-40.21-20.32-43.018-21.082-53.964-14.634-3.7809 2.2272-8.2454 4.6505-9.9212 5.3851-1.6758 0.73459-3.0469 1.5824-3.0469 1.884 0 0.30162-2.1094 1.5364-4.6875 2.7439-4.0278 1.8865-6.3576 4.6875-3.899 4.6875 0.43368 0 1.8928 2.029 3.2425 4.5088 2.9494 5.4191 6.626 9.5537 8.4954 9.5537 0.75123 0 6.5722 2.077 12.935 4.6155 6.3632 2.5386 14.414 5.5273 17.891 6.6417s6.5605 2.4124 6.8522 2.8845c0.29174 0.47204 1.3404 0.85825 2.3304 0.85825 0.98997 0 5.0784 1.122 9.0853 2.4934 13.839 4.7363 19.852 5.2815 27.794 2.52zm-628.95-18.771c6.7031-3.3665 12.82-6.4558 13.594-6.8651 6.4141-3.3942 28.953-14.065 29.708-14.065 0.52585 0 5.131-1.9525 10.234-4.339 8.0162-3.7491 27.508-11.664 32.481-13.189 2.7566-0.84547 1.8338-3.1148-1.875-4.6108-4.408-1.7781-10.442-4.6979-12.866-6.226-1.0179-0.64156-4.2645-2.7134-7.2146-4.6042l-5.3639-3.4377-8.7229 3.2272c-4.7976 1.775-10.511 4.0602-12.697 5.0783-2.1858 1.0181-4.1983 1.8511-4.4722 1.8511-0.27394 0-3.9699 1.6332-8.2133 3.6294s-8.77 3.9439-10.059 4.3283c-8.0958 2.4142-29.951 14.552-35.625 19.785-1.2891 1.1889-3.2707 3.0046-4.4037 4.035-4.3017 3.9121-4.8733 12.074-1.1749 16.776 5.578 7.0913 10.303 6.8481 26.672-1.3732zm687.81 1.851c5.5515-5.5515 3.4642-17.593-4.1421-23.894-1.6724-1.3855-4.3064-3.5271-5.8533-4.7592-4.9015-3.904-30.603-15.808-39.375-18.238-4.6406-1.2851-10.758-3.1808-13.594-4.2125-2.8359-1.0318-7.0547-2.4166-9.375-3.0775-2.3203-0.66083-7.582-2.3038-11.693-3.651-9.6447-3.1609-8.9837-3.2806-14.751 2.6717-15.103 15.586-16.159 13 10.975 26.859 41.128 21.006 48.951 24.509 63.75 28.54 3.0938 0.84284 6.8906 1.893 8.4375 2.3338 5.7438 1.6365 12.528 0.51885 15.62-2.5733zm-717.07-42.14c4.236-2.3945 7.9128-4.6446 8.1706-5.0002 0.52941-0.73022 9.8783-5.1106 18.198-8.5269 10.33-4.2414 20.154-16.61 16.597-20.896-1.586-1.911-23.062 2.3519-37.814 7.5058-3.4766 1.2147-6.7713 2.2085-7.3215 2.2085-0.55021 0-2.7468 0.84375-4.8812 1.875s-4.5937 1.875-5.4649 1.875c-0.87127 0-2.082 0.59983-2.6904 1.333-0.60845 0.73312-2.875 1.6255-5.0367 1.9831-2.1617 0.35755-5.5917 1.4452-7.6221 2.417-2.031 0.96-4.668 1.76-5.86 1.76-1.1922 0-2.1677 0.42188-2.1677 0.9375 0 0.51563 0.4688 0.9375 1.0418 0.9375 0.57297 0 2.9988 1.6179 5.3906 3.5953 4.7734 3.9463 14.784 10.809 17.005 11.657 2.9813 1.1388 5.0041 0.54298 12.454-3.6684zm737.81-3.1464c1.7314 0 10.051-6.1576 10.051-7.439 0-0.92599-6.7056-4.3838-13.959-7.1981-3.4085-1.3225-7.6739-3.0723-9.4786-3.8885-15.512-7.0154-49.688-17.869-49.688-15.78 0 12.666 14.094 24.179 42.656 34.843 2.5781 0.96262 6.1612 2.462 7.9624 3.332 3.2421 1.566 3.3121 1.5545 6.9816-1.1441 2.0386-1.4992 4.5017-2.7259 5.4735-2.7259zm-779.8-10.3c0.51562-0.39298 1.9922-1.024 3.2812-1.4023 1.2891-0.37827 3.6094-1.219 5.1562-1.8683 1.5469-0.64928 4.7109-1.733 7.0312-2.4083 2.3203-0.67531 4.6406-1.5084 5.1562-1.8513 1.7511-1.1646 24.327-8.306 35.156-11.121 5.9297-1.5414 13.312-3.4958 16.406-4.3432 3.0938-0.84739 9-2.4029 13.125-3.4566s7.7109-2.1934 7.9688-2.5327c0.25781-0.33923 2.4516-0.60267 4.875-0.58542 5.8542 0.04167 6.4338-0.76612 6.9076-9.6271 0.22233-4.1588 0.77591-8.5385 1.2302-9.7327l0.82588-2.1713-11.841 0.29314c-17.541 0.43426-50.903 4.3848-69.029 8.174-8.7656 1.8325-17.302 3.5788-18.969 3.8807-1.6675 0.30188-3.5122 1.1276-4.0992 1.8349-0.58702 0.70731-2.3867 1.3063-3.9994 1.3311-14.354 0.22044-20.087 22.74-8.7672 34.436 2.9601 3.0584 6.5207 3.4857 9.5851 1.1502zm810.68-0.34299c5.4-2.42 11.98-8.842 11.98-11.702 0-0.99058 0.62873-2.3229 1.3972-2.9606 2.2007-1.8264-0.84421-10.773-4.813-14.141-11.39-9.669-71.74-21.399-107.2-20.836-18.58 0.29508-19.317 0.61132-15.95 6.8451 0.9747 1.8047 2.4964 4.9121 3.3814 6.9054 1.619 3.646 5.1779 5.9152 10.669 6.8024 1.3028 0.21052 4.0563 0.9692 6.1188 1.686 2.0625 0.71676 5.0156 1.5698 6.5625 1.8957 3.9416 0.83032 17.503 4.9712 25.312 7.7292 3.6094 1.2746 8.5792 2.937 11.044 3.6942 2.4649 0.75719 7.5274 2.7727 11.25 4.4789s10.143 4.5713 14.268 6.367c4.125 1.7956 8.5547 3.726 9.8438 4.2896 4.0322 1.7631 10.826 1.3171 16.145-1.0598zm4.4706-40.012c-6.45-25.095-36.65-38.883-71.65-32.72-17.75 3.125-36.24 8.129-51.37 13.901l-2.5635 0.97798 2.0283 3.4377 2.0283 3.4377 11.316-0.62006c29.637-1.6239 84.391 6.7647 105.54 16.169 6.4927 2.8876 6.5797 2.8023 4.6782-4.5898zm-811.97-1.789c16.645-4.327 24.698-5.9883 38.546-7.9519 13.346-1.8924 39.03-4.2358 54.141-4.9398 11.796-0.54958 12.423-0.67763 12.435-2.5435 0.007-1.0806 0.26218-2.8949 0.56698-4.0317 0.43868-1.6361 0.0941-2.161-1.6534-2.5184-46.73-9.556-78.03-10.702-93.101-3.408-2.159 1.045-4.274 1.9-4.699 1.9-1.146 0-11.76 11.198-11.76 12.408 0 0.57118-0.68725 1.7979-1.5272 2.7261-0.83997 0.92816-1.838 3.3872-2.2179 5.4644l-0.691 3.776h3.281c1.8045 0 4.8065-0.39656 6.671-0.88126zm638.84-3.366c6.7176-2.2294 9.5958-12.628 3.4953-12.628-0.96694 0-11.571 5.5267-12.623 6.5792-0.50645 0.50646-1.6802 0.92083-2.6083 0.92083-2.2182 0-2.1287 1.2057 0.4179 5.6305 1.8967 3.2957 2.2916 3.5418 3.9844 2.4832 1.0334-0.64625 4.3338-1.9897 7.3341-2.9854zm-681.86-10.219c7.834-6.941 10.483-12.449 8.327-17.32-1.88-4.247-9.769-5.461-12.763-1.964-0.88298 1.0312-2.0789 1.875-2.6575 1.875-1.3034 0-6.0312 3.9843-6.0312 5.0827 0 0.44236-0.73828 1.3441-1.6406 2.004-2.7732 2.0278-2.2977 11.16 0.6917 13.286 5.2701 3.7479 6.8819 3.4085 14.074-2.9634zm204.44 1.9945 2.4085-3.9746-9.2053-3.361-9.2053-3.361v2.281c0 1.2788-1.2221 3.5031-2.7816 5.0627-1.754 1.754-2.3601 2.9298-1.6406 3.1827 3.8168 1.3416 14.564 4.0766 16.141 4.1077 1.2225 0.02409 2.7132-1.3462 4.2835-3.9376zm690.22 1.5874c8.5611-4.0825 6.6264-13.869-4.3354-21.93-5.9366-4.3658-13.518-3.8528-16.779 1.1355-3.3457 5.1177-2.5314 7.4401 5.6078 15.994 1.633 1.7162 7.7635 5.2582 9.76 5.6389 1.1973 0.22832 2.268 0.47258 2.3794 0.5428 0.11141 0.07022 1.6265-0.55135 3.3668-1.3813zm-743.72-14.3c0-1.2392-9.0428-7.3398-14.062-9.4871-1.2891-0.55144-3.6094-1.593-5.1562-2.3145-8.3475-3.8938-10.823-4.6628-16.172-5.0238-12.391-0.83631-2.7419 9.6143 11.016 11.931 3.8672 0.6511 8.2969 1.3991 9.8438 1.6622 1.5469 0.26314 3.523 0.85851 4.3915 1.3231 0.86845 0.46454 2.6365 0.84462 3.929 0.84462s2.6108 0.42188 2.9295 0.9375c0.70963 1.1482 3.2812 1.2481 3.2812 0.1275zm610.31-6.261c8.1627-1.9296 15.888-10.742 9.4171-10.742-3.0845 0-25.992 13.176-27.693 15.929-0.30292 0.49013 2.1032-0.10249 5.3469-1.3169s9.0617-2.956 12.929-3.8702zm-656.25-2.304c0-0.51562-0.38653-0.9375-0.85896-0.9375s-3.9529-2.068-7.7344-4.5955c-7.0471-4.7102-16.163-8.1062-18.921-7.0481-2.9076 1.1158-2.4989 1.6847 5.4098 7.5297 3.9967 2.9538 5.754 3.5658 13.125 4.5705 4.6808 0.63803 8.6159 1.2182 8.7448 1.2892 0.12 0.071 0.23-0.292 0.23-0.808zm234.44-9.3604c-2.1614-4.1544-4.1049-8.463-4.319-9.5746-0.21408-1.1116-0.8684-2.474-1.4541-3.0274-0.78741-0.74416-0.88075-0.39574-0.35828 1.3374 1.1047 3.6645 9.1417 19.738 9.6268 19.252 0.23887-0.23887-1.3341-3.8334-3.4955-7.9878zm456.5 4.2876c8.6808-1.3685 12.507-2.6126 14.662-4.7674 5.164-5.164-8.5369-3.5615-20.985 2.4543-7.8227 3.7806-6.366 4.3135 6.3229 2.3131z"/>
<path id="path4166" d="m600.94 436.67c-3.2012-1.1922-10.026-2.372-18.001-3.1117-24.556-2.2779-53.499-30.364-60.826-59.024-0.39544-1.5469-2.8637-11.25-5.4851-21.562-4.4736-17.599-7.5947-28.464-9.4259-32.812-1.1366-2.6991-5.2352-15.919-6.9759-22.5-2.6214-9.9113-4.3134-23.062-4.8248-37.5-0.27394-7.7344-0.72346-15.527-0.99893-17.317l-0.50084-3.2542-1.8674 5.1292c-3.4168 9.3849-3.6289 10.668-4.1803 25.285-0.41206 10.925-0.15707 17.44 1.0273 26.25 4.7205 35.113 4.0195 51.037-2.9351 66.679-10.619 23.883-21.694-16.503-16.228-59.179 2.8973-22.623 1.983-51.937-1.8848-60.428-1.0415-2.2862-1.8936-4.8128-1.8936-5.6145 0-13.826-2.6876 3.1471-3.1834 20.105-0.5443 18.615-4.3825 38.593-9.0484 47.097-0.49127 0.89535-0.89322 2.2536-0.89322 3.0184 0 0.76476-0.74695 2.7744-1.6599 4.4658-0.91295 1.6915-2.2354 4.7629-2.9387 6.8254-0.70333 2.0625-2.0158 5.4375-2.9166 7.5-2.6496 6.0664-3.6814 9.1178-4.5967 13.594-2.5291 12.367-5.6872 26.384-6.9703 30.938-3.8419 13.633-6.9124 22.54-8.3028 24.083-0.84154 0.93411-2.5469 3.4926-3.7898 5.6855-3.6795 6.4923-11.682 14.94-16.914 17.855-2.684 1.4953-6.8146 3.8344-9.1791 5.198-7.24 4.1755-16.587 7.0507-26.528 8.1601-5.2171 0.58224-10.329 1.4195-11.361 1.8605-6.3887 2.7324-22.692 1.5007-36.346-2.7459-6.9667-2.1668-9.7132-2.6376-11.476-1.9672-1.2748 0.48467-2.8488 0.69858-3.4978 0.47536-0.649-0.22321-4.9769-0.81271-9.6175-1.31-10.779-1.1551-11.923-1.6288-22.191-9.1889-7.0092-5.1606-9.4969-6.3899-19.638-9.7038-15.439-5.0451-21.056-9.8195-27.532-23.401-1.3522-2.8359-2.8578-5.8888-3.3457-6.7842-0.48792-0.89535-0.88713-2.2079-0.88713-2.9167 0-0.70885-1.793-3.2206-3.9844-5.5817-9.348-10.072-16.637-21.564-16.64-26.235-0.004-6.4879-5.0295-16.678-10.669-21.633-10.168-8.9328-17.33-21.077-17.415-29.531-0.0357-3.5509-0.6362-4.7384-4.5751-9.0482-8.1746-8.9443-13.339-30.096-9.0454-37.044 0.43762-0.70808 0.90038-3.358 1.0284-5.8888 0.12798-2.5307 0.51015-6.2437 0.84928-8.251 0.60455-3.5783 0.5607-3.6496-2.2431-3.6496-9.7111 0-20.498-8.5401-30.788-24.375-2.8481-4.3828-7.6592-10.41-10.691-13.393-3.0321-2.9833-5.5129-5.8177-5.5129-6.2987s-0.55025-0.66339-1.2228-0.40532c-1.5668 0.60121-18.688-16.087-24.106-23.497-5.376-7.38-15.896-17.94-22.934-23.05-3.094-2.24-6.913-5.15-8.489-6.45-1.575-1.31-4.284-3.43-6.021-4.72s-4.036-3.19-5.108-4.22c-1.073-1.03-4.269-3.77-7.104-6.09-6.436-5.27-20.622-19.247-20.622-20.318 0-0.43858-0.96432-1.8478-2.1429-3.1316-21.176-23.066-21.26-57.442-0.179-73.886 24.184-18.864 84.177-25.288 127.01-13.599 11.942 3.2589 17.707 4.9655 29.531 8.7413 5.1562 1.6465 10.852 3.3975 12.656 3.891 3.696 1.0107 7.9909 2.4718 10.781 3.6677 1.0312 0.44196 5.25 1.8932 9.375 3.225s9.6094 3.4 12.188 4.5961c2.5781 1.1961 5.7422 2.5005 7.0312 2.8987 1.2891 0.39818 5.4332 2.1445 9.2091 3.8807s7.1177 3.1568 7.4262 3.1568c0.30847 0 1.2269 0.54551 2.0409 1.2122 0.81404 0.66673 3.1676 1.7809 5.2301 2.4759s3.9609 1.5206 4.2188 1.8346c0.49185 0.59915 2.4428 1.5656 19.219 9.5212 5.6719 2.6897 10.945 5.4093 11.719 6.0434 0.77344 0.63415 5.2031 3.1759 9.8438 5.6482 16.053 8.5524 28.648 15.733 33.919 19.335 2.1554 1.4734 4.1313 2.6789 4.3908 2.6789 0.60654 0 10.289 5.9057 10.909 6.6536 0.25781 0.31114 1.5034 1.1113 2.7679 1.7781 1.2645 0.66682 6.9777 4.2104 12.696 7.8747 14.224 9.115 13.662 8.7663 17.421 10.808 3.705 2.012 14.277 8.935 16.678 10.921 0.84194 0.69653 5.9719 4.5815 11.4 8.6332 10.168 7.5899 13.162 9.9453 15.793 12.426 0.83909 0.7911 3.2485 2.5928 5.3542 4.0039 2.1057 1.411 4.6417 3.3231 5.6356 4.2491 0.99389 0.92595 4.2668 3.257 7.273 5.1801 3.0063 1.9231 6.4356 4.4263 7.6207 5.5626s4.379 3.9645 7.0975 6.2848 5.9098 5.168 7.0917 6.3281c2.5353 2.4886 3.1717 2.6203 3.1717 0.65656 0-0.79904 0.64365-2.6975 1.4303-4.2188 1.4048-2.7166 1.3873-2.7659-0.98011-2.7659-6.6542 0-9.9968-11.857-4.4346-15.73 3.1653-2.2043 8.5939-4.1161 9.7171-3.4219 2.4488 1.5135 0.25255-4.3258-3.5028-9.3129-2.3829-3.1645-4.5527-6.3865-4.8216-7.1599-0.26896-0.77344-1.8573-2.8828-3.5297-4.6875s-6.4428-8.3438-10.601-14.531c-4.1582-6.1875-10.588-15.047-14.289-19.688-3.7008-4.6406-7.1644-9.3867-7.6967-10.547-0.54-1.151-1.45-2.1-2.03-2.1-0.5795 0-1.7922-1.2503-2.6949-2.7784-0.90268-1.5281-2.1538-3.3211-2.7803-3.9844-2.5039-2.6511-9.1013-11.813-12.063-16.753-3.5859-5.9805-6.0406-9.1966-15.56-20.387-3.7383-4.3945-6.7969-8.5244-6.7969-9.1777s-0.88328-1.8065-1.9628-2.5626c-3.375-2.3639-12.08-22.458-10.604-24.477 1.8377-2.5132 12.55 15.301 12.573 20.907 0.004 0.85639 2.691 5.143 5.9724 9.5258s20.647 27.797 38.59 52.031c49.498 66.854 44.353 60.921 45.806 52.825 0.62932-3.5079 2.783-5.3241 3.9926-3.3669 0.37215 0.60216 1.4235 2.5876 2.3364 4.4122 0.91288 1.8246 1.6766 2.6719 1.6971 1.883 0.0366-1.4053 6.3637-8.0402 7.0114-7.3526 0.18102 0.19218 0.70281 2.6697 1.1595 5.5057l0.83041 5.1562 2.9813-4.2188c1.6397-2.3203 3.6233-5.0625 4.4079-6.0938 15.695-20.628 58.045-78.209 69.136-94.002 6.7643-9.6319 13.966-20.898 16.003-25.036 2.0372-4.1382 4.252-8.5786 4.9218-9.8677 0.66981-1.2891 1.76-3.5195 2.4225-4.9565 1.3655-2.9616 4.2727-3.084 3.8927-0.16379-0.69703 5.3563-1.1424 7.0435-2.6208 9.9291-1.4261 2.7834-6.0461 8.3062-6.0461 7.2276 0-0.22376 1.4766-3.2901 3.2812-6.8142 1.8047-3.524 3.2457-7.3008 3.2023-8.3929-0.0565-1.4216-0.59754-0.85765-1.9048 1.9858-1.0042 2.1843-1.75 4.0827-1.6574 4.2187 0.0926 0.13606-0.7145 1.978-1.7936 4.0933s-1.7465 4.6703-1.483 5.6778c0.32958 1.2603-0.71029 3.0947-3.3328 5.8793-2.0965 2.2261-3.8119 4.1627-3.8119 4.3037 0 0.75622-12.808 18.963-14.243 20.247-0.93222 0.83392-1.6949 2.017-1.6949 2.629 0 0.61202-1.2384 2.4378-2.752 4.0574s-3.3026 4.0225-3.9756 5.3398c-1.3898 2.7206-8.777 12.885-13.087 18.006-1.5845 1.8828-3.5752 4.4776-4.4238 5.7662-1.9154 2.9083-6.1199 8.3786-10.23 13.31-4.5842 5.5002-4.9059 5.9427-4.9116 6.7573-0.005 0.61683-6.2248 8.8294-11.755 15.519-0.75078 0.90824-1.365 2.0167-1.365 2.4633 0 0.44659-0.64081 1.3438-1.424 1.9938-0.78321 0.65-4.8244 5.9751-8.9804 11.834-4.156 5.8584-7.9449 10.652-8.4197 10.652-0.47485 0-0.86337 1.0265-0.86337 2.281 0 1.9152 0.4406 2.2685 2.7471 2.2029 11.455-0.32571 14.001 15.115 3.0438 18.459-1.9596 0.59795-2.0374 0.82046-0.77617 2.2203 0.77093 0.85564 1.6912 2.7159 2.0451 4.1338 0.35388 1.418 0.81701 2.5781 1.0292 2.5781 1.1112 0 8.7596-5.4947 19.152-13.759 14.348-11.41 29.875-23.464 39.717-30.835 4.085-3.0591 8.9366-6.6945 10.781-8.0786 4.6416-3.4829 13.076-9.4771 14.936-10.615 0.84864-0.51903 4.2095-2.7339 7.4686-4.9219s6.097-3.9782 6.3065-3.9782c0.34108 0 16.995-10.887 27.405-17.916 2.2065-1.4898 4.276-2.7087 4.599-2.7087 0.32297 0 1.97-1.0547 3.66-2.3438s3.3045-2.3438 3.5876-2.3438c0.28314 0 3.159-1.6115 6.3907-3.5811s7.247-4.1819 8.9228-4.9164c1.6758-0.73441 3.0469-1.6542 3.0469-2.0439 0-0.38976 0.61998-0.70865 1.3777-0.70865 1.2717 0 7.2213-2.9672 9.4035-4.6898 1.8769-1.4816 34.693-18.193 44.062-22.438 4.6138-2.0905 5.6497-2.5837 9.375-4.4631 5.4513-2.7501 18.565-8.4965 30.469-13.351 5.4141-2.2081 10.898-4.5355 12.188-5.1722 1.2891-0.63666 7.8281-2.9684 14.531-5.1816 6.7031-2.2132 13.031-4.3568 14.062-4.7636 7.8992-3.1159 18.369-5.5856 39.844-9.3983 5.9297-1.0528 12.891-2.3501 15.469-2.8829 2.9329-0.60608 15.917-0.8053 34.688-0.53221 34.202 0.49759 37.187 0.98234 50.919 8.2685 4.2866 2.2745 9.5807 5.0403 11.764 6.1462 10.092 5.1107 15.462 15.998 17.465 35.41 0.94416 9.1511-1.2962 23.577-4.1514 26.732-0.80597 0.89059-1.4654 2.2727-1.4654 3.0713 0 0.79861-0.63281 1.9772-1.4062 2.6191-0.77344 0.6419-1.4062 1.6201-1.4062 2.1738 0 1.1487-4.7937 8.4463-5.8594 8.92-0.38671 0.17188-0.70312 0.91309-0.70312 1.6471 0 0.73405-3.6914 5.1059-8.2031 9.7153s-10.466 10.724-13.231 13.587c-2.7654 2.8636-5.7185 5.2116-6.5625 5.2177-0.84397 0.007-3.4329 1.8037-5.7532 3.9946s-7.3876 6.339-11.261 9.2178c-9.437 7.0146-17.537 15.481-20.686 21.621-5.7585 11.23-23.97 28.905-29.782 28.905-2.0626 0-11.246 10.643-15.006 17.392-5.2153 9.3595-9.9892 15.101-14.483 17.418-1.9587 1.0101-3.782 2.4116-4.0517 3.1145-0.85249 2.2216-9.714 4.4579-17.465 4.4076-8.3609-0.0543-8.846 0.58406-4.1845 5.507 3.4809 3.6762 5.7532 10.142 7.2296 20.572 1.6555 11.695 0.61684 15.016-7.2638 23.226-1.1602 1.2087-2.1094 2.8245-2.1094 3.5906 0 0.76618-0.59124 1.6199-1.3139 1.8972-1.8992 0.72877-2.521 3.5523-2.7952 12.691-0.29064 9.6885-3.8274 16.868-10.924 22.175-2.3023 1.7217-4.9292 3.7359-5.8374 4.4759-0.90824 0.74003-2.2101 1.3455-2.8931 1.3455-3.4738 0-7.8136 7.1878-8.4456 13.988-0.92688 9.9728-6.2442 21.136-10.268 21.558-0.94588 0.099-8.5041 5.9194-8.9294 6.8762-0.17188 0.38671-0.88172 0.70312-1.5774 0.70312-0.69572 0-1.5327 0.84375-1.86 1.875-0.32731 1.0312-0.95583 1.875-1.3967 1.875-1.3213 0-2.7734 5.7282-2.9533 11.65-0.16442 5.4112-0.76273 6.7114-5.2147 11.332-0.61998 0.64347-0.89396 1.4032-0.60886 1.6883 0.2851 0.28511-0.3678 1.4696-1.4509 2.6321-1.0831 1.1626-1.9693 2.448-1.9693 2.8566 0 0.40857-1.1602 1.0234-2.5781 1.3662-1.418 0.34282-3.6979 1.4055-5.0666 2.3616-1.3687 0.95605-3.1367 1.7383-3.929 1.7383-0.79231 0-1.7013 0.42187-2.02 0.9375-0.31867 0.51562-2.2171 0.9375-4.2188 0.9375-2.0016 0-3.8664 0.36739-4.1439 0.81641-0.27752 0.44903-1.8492 1.0853-3.4927 1.414-1.6434 0.32869-4.3663 1.6488-6.0507 2.9336s-3.4331 2.336-3.8859 2.336-1.6558 0.73828-2.6733 1.6406c-12.269 10.881-18.804 13.39-27.165 10.43-8.6519-3.0624-19.898-1.978-29.932 2.8861-13.145 6.3721-18.359 7.2868-25.781 4.5226zm-213.15-33.99c7.9879-3.9849 9.4523-23.782 2.741-37.056-1.9553-3.8672-3.9914-7.9614-4.5248-9.0982s-2.4575-2.7729-4.2758-3.6358l-3.306-1.5688-2.6803 3.167c-7.524 8.8902-12.97 32.537-8.8479 38.422 0.84518 1.2067 1.5367 2.948 1.5367 3.8695 0 5.2401 12.837 9.1529 19.357 5.9002zm196.85-1.7042c7.1372-7.4118 8.7341-14.235 5.0825-21.719-1.4992-3.0725-2.4974-5.956-2.2181-6.4079 0.27928-0.4519-0.14524-2.1568-0.94337-3.7887s-1.6863-3.5999-1.9737-4.3733c-0.524-1.4102-1.4645-3.0004-4.5188-7.6407-0.90234-1.3709-1.6406-3.1321-1.6406-3.9139 0-1.7156-4.7169-2.9225-7.7097-1.9726-3.1691 1.0058-4.4122 3.2034-4.4702 7.9022-0.0286 2.3203-1.0948 6.75-2.3692 9.8438-2.5638 6.2239-3.1282 15.553-1.2817 21.188 3.0989 9.4576 4.0241 10.566 11.143 13.353 2.649 1.037 8.8822-0.37636 10.9-2.4714zm29.413-5.327c1.8047-0.49649 4.7987-1.0871 6.6534-1.3125 20.234-2.4592 26.195-26.5 12.115-48.868-5.3808-8.5482-13.749-11.002-17.396-5.1013-1.046 1.6924-13.791 6.8014-17.279 6.9268-2.1492 0.0772-3.8857 4.3339-3.2711 8.0182 1.8992 11.385 6.6852 29.656 8.2906 31.65 0.57397 0.71309 1.7819 2.11 2.6842 3.1043 0.90235 0.99428 1.6406 2.3562 1.6406 3.0266 0 3.0105 2.0322 3.8019 6.5625 2.5556zm-261.5-3.3627c1.9598-1.7736 2.4272-3.622 3.5594-14.074 0.4509-4.1628 1.6094-9.2253 2.5744-11.25 4.1914-8.794 1.5197-15.215-8.428-20.256-3.0318-1.5364-6.5953-3.7977-7.919-5.025-8.3972-7.7863-20.642 2.0416-22.823 18.319-1.1448 8.5413-2.3198 14.384-3.4532 17.17-1.3694 3.3668-1.4672 2.9331 1.3461 5.9687 1.3308 1.4359 2.7018 3.0397 3.0469 3.5639 1.9146 2.9092 6.6809 4.9257 13.149 5.563 3.7913 0.37358 7.7984 1.0641 8.9047 1.5346 2.7281 1.16 7.9601 0.37131 10.043-1.514zm64.824-6.3883c1.7363-2.1537 3.1475-9.0901 2.2991-11.301-1.9503-5.0823-10.305-4.8749-11.557 0.28691-0.32819 1.3527-1.1666 3.2916-1.8631 4.3087-4.2961 6.2734 6.3124 12.67 11.121 6.7053zm134.6-2.0002c0.26-3.54-2.9-8.9-5.24-8.9-4.1867 0-6.1646 6.3303-3.1176 9.9775 3.6864 4.4124 8.0188 3.8536 8.3682-1.0793zm118.96-8.4677c7.5641-3.073 11.214-8.9772 9.7025-15.695-4.1983-18.661-7.6715-29.71-9.5929-30.517-0.40927-0.17188-0.74414-0.78201-0.74414-1.3559 0-10.433-20.024-14.117-25.438-4.6797-4.4805 7.8108 3.3973 39.573 13.602 54.839l1.7067 2.5534 3.424-1.7771c1.8832-0.97741 5.1861-2.493 7.3397-3.3679zm-368.47-2.06c10.051-10.718 13.558-34.332 6.8299-46-0.98325-1.7053-1.7877-3.5765-1.7877-4.1583 0-3.082-4.0777-5.3975-9.5054-5.3975-5.7364 0-7.3696 1.2161-7.3696 5.4874 0 1.0234-0.60008 3.055-1.3335 4.5148-7.7628 15.451-13.652 30.546-13.655 34.998-0.002 3.8672 1.8663 9.375 3.1803 9.375 0.67591 0 4.1264 1.5102 7.6676 3.3561 8.0314 4.1862 10.296 3.8777 15.973-2.1756zm404.09-17.12c2.292-1.5469 4.4771-2.8125 4.8557-2.8125 8.8935 0 3.9948-26.204-6.6788-35.726-16.632-14.838-26.262-8.4957-22.112 14.563 4.9199 27.34 10.568 32.997 23.935 23.976zm-444.05 0.18c0-0.4184 0.78407-1.6023 1.7424-2.631 0.95831-1.0286 2.2547-3.4226 2.8809-5.32 0.62619-1.8974 1.5296-3.6915 2.0076-3.9869 0.478-0.29543 0.8691-1.9888 0.8691-3.7631s0.40562-3.2259 0.90137-3.2259c2.569 0 4.7682-20.393 2.5624-23.759-6.5667-10.022-25.648-0.35646-29.323 14.853-0.37371 1.5469-0.93092 3.0234-1.2382 3.2812-4.3578 3.6557-4.5156 11.752-0.24972 12.811 3.0927 0.76772 11.657 6.9869 13.939 10.122 1.5667 2.1524 5.9078 3.3419 5.9078 1.6187zm-26.07-37.76c6.9827-7.3403 8.4033-10.498 8.1163-18.042-0.28538-7.5-2.8345-13.753-5.6067-13.753-0.90516 0-1.9065-0.42188-2.2252-0.9375-0.86494-1.3995-5.479-1.1314-7.5552 0.43894-1.0009 0.75703-2.5581 1.3898-3.4604 1.4062-0.90234 0.0164-1.6406 0.38912-1.6406 0.82827 0 0.43914-1.2148 2.0696-2.6995 3.6232s-3.8122 5.04-5.1721 7.7476l-2.4726 4.9229 2.2586 4.8133c1.2422 2.6473 2.4701 5.4693 2.7287 6.271 0.25859 0.80173 2.308 1.9952 4.5542 2.6522 2.2462 0.65699 5.1387 1.7554 6.4277 2.441 1.2891 0.68554 2.5145 1.285 2.7233 1.3321 0.20874 0.0472 2.0193-1.638 4.0235-3.7449zm498.85 0.78372c5.6054-7.569 8.0255-28.089 3.491-29.6-0.5305-0.17683-0.96453-0.83442-0.96453-1.4613 0-2.8652-11.027-4.9698-15.323-2.9246-11.251 5.3552-11.768 14.762-1.4564 26.505 1.2366 1.4083 3.0751 4.1285 4.0855 6.0449 2.8118 5.333 6.8587 5.9049 10.168 1.4368zm-305.83 0.30258c1.8401 1.1647 5.8619 1.0735 10.015-0.22719 4.7543-1.4891 15.22-18.065 15.22-24.106 0-0.88537 0.39821-2.0106 0.88492-2.5004 2.2841-2.2988 7.0345-51.047 4.9744-51.047-0.43828 0-1.2952 0.49835-1.9043 1.1074-0.66627 0.66627-3.7097 1.0592-7.6398 0.9863-5.9673-0.11065-6.5861 0.0571-7.1531 1.9394-0.34139 1.1333-1.2008 3.3262-1.9097 4.8731-1.2491 2.7255-9.0228 25.245-10.679 30.938-1.8533 6.368-6.4684 23.958-8.4528 32.217-1.1976 4.9843-0.0668 7.0262 3.2025 5.7832 1.2037-0.45766 2.6872-0.44195 3.443 0.0365zm98.113-2.123c8.4284-1.553 10.576-5.6621 6.7497-12.914-0.41698-0.79036-2.0134-5.023-3.5476-9.4058s-4.5559-12.188-6.7148-17.344c-2.1589-5.1562-4.5579-11.062-5.3311-13.125-3.707-9.8883-10.004-21.223-12.51-22.519-1.4232-0.73594-4.3594-3.142-6.525-5.3468l-3.9374-4.0087 0.61618 4.6875c0.3389 2.5781 0.9842 12.914 1.434 22.969 1.1665 26.076 5.995 48.432 11.985 55.494 2.2057 2.6002 8.8255 3.1638 17.781 1.5137zm-118.49-2.164c1.8511-0.77344 4.6035-1.4062 6.1165-1.4062 2.2492 0 2.9407-0.54458 3.7918-2.986 0.57252-1.6423 1.6124-3.6462 2.3108-4.4531 0.69843-0.80691 1.5578-3.3656 1.9097-5.6859 0.73465-4.8436 11.579-37.232 17.97-53.671 2.06-5.2986 2.0311-5.3398-7.2322-10.325l-6.2156-3.345-3.2242 3.436c-1.7734 1.8898-5.0916 5.7563-7.374 8.5923-2.2823 2.8359-4.5734 5.6365-5.0914 6.2235-9.1143 10.329-20.303 26.724-21.345 31.276-0.58618 2.561-3.53 13.567-5.6944 21.289l-1.3686 4.8831 3.179 2.4247c6.8004 5.1869 15.37 6.6287 22.267 3.7465zm152.46-2.0339c2.3376-0.86082 4.9161-2.1264 5.7302-2.8125 0.81404-0.68605 2.0077-1.2474 2.6526-1.2474 2.0261 0-2.0358-14.005-7.474-25.77-1.4328-3.0998-2.895-6.7961-3.2492-8.2141-0.35422-1.418-1.0653-2.5781-1.5802-2.5781-0.51489 0-0.72702-0.54502-0.4714-1.2112 0.66227-1.7258-0.66911-3.3104-15.265-18.167-14.504-14.763-15.013-15.078-21.086-13.016-2.3601 0.80129-5.5871 1.4569-7.1711 1.4569-1.93 0-2.7248 0.38656-2.4094 1.1719 0.25884 0.64454 3.4111 7.7109 7.005 15.703 9.9771 22.187 15.436 35.471 20.998 51.094l1.335 3.75 5.8997 0.15687c3.2448 0.0862 6.1455 0.40269 6.446 0.70313 0.97324 0.97323 4.2937 0.58166 8.6399-1.0189zm-183.51-5.2318c7.3328-5.7262 10.357-26.394 3.3842-23.128-2.6637 1.2476-5.0882 2.3028-5.3879 2.3449-0.29968 0.0421-3.498 1.463-7.1074 3.1575s-8.5987 3.8169-11.087 4.7163c-6.8336 2.4697-8.0907 4.1073-4.724 6.154 1.4775 0.89828 3.82 2.4095 5.2056 3.3583 4.874 3.3376 17.096 5.4432 19.717 3.3968zm205.58-1.6868c0.51562-0.39793 2.625-1.0041 4.6875-1.3471 2.0625-0.34297 4.8047-0.97024 6.0938-1.394 1.2891-0.42372 4.7695-1.4858 7.7344-2.3601 6.6325-1.9559 6.6843-2.4686 0.46875-4.6364-4.1902-1.4614-12.951-5.9326-19.922-10.167-2.3277-1.414-10.049-6.923-16.899-12.057-4.774-3.5781-7.608-4.3787-5.4188-1.5309 1.2889 1.6767 9.3372 21.756 11.077 27.635 2.1403 7.2326 7.2261 9.6785 12.178 5.8568zm-231.56-11.419c2.5781-0.80254 7.6406-2.733 11.25-4.2898 26.458-11.412 26.669-11.532 28.076-15.964 0.35686-1.1244 3.0916-5.3107 6.0771-9.3029 5.5569-7.4305 7.007-9.1714 13.075-15.696 1.918-2.0625 4.8012-5.6484 6.4071-7.9688 1.6059-2.3203 4.3092-5.417 6.0075-6.8816l3.0877-2.6629-2.3024-1.7543c-1.2663-0.96488-3.7789-2.5054-5.5836-3.4234-1.8047-0.91801-3.8552-2.0792-4.5568-2.5805-6.6321-4.7387-15.523-7.0722-26.945-7.0722-6.3257 0-12.527-0.3901-13.781-0.86689-2.4934-0.94798-8.175 0.00011-10.177 1.6982-0.69247 0.58744-5.4778 3.9801-10.634 7.5393s-10.306 7.1458-11.444 7.9702c-1.1931 0.86422-2.3259 2.9819-2.6751 5.0009-2.0945 12.111-12.614 31.655-18.829 34.981-1.2141 0.64976-2.2074 1.6402-2.2074 2.201 0 1.0166-6.194 3.3511-8.8915 3.3511-2.0013 0-1.7712 1.6375 0.32354 2.3024 0.9595 0.30453 3.2968 2.2314 5.194 4.2819s3.9997 3.7282 4.6721 3.7282c0.67245 0 2.4416 1.0474 3.9315 2.3277 5.5271 4.7493 19.836 6.2228 29.927 3.0817zm276.91-1.2401c5.4802-0.80067 10.388-2.0049 10.905-2.6761 0.5176-0.67118 1.9942-1.5461 3.2812-1.9443 1.2871-0.39818 2.973-1.3227 3.7464-2.0545 0.77344-0.73179 2.2325-1.8972 3.2424-2.5897 2.0037-1.3741 1.1253-2.3911-7.8541-9.0942-3.4523-2.5771-10.131-8.9392-11.795-11.235-5.8306-8.0477-11.719-20.288-11.719-24.36 0-0.97784-0.42188-1.7779-0.9375-1.7779-0.51563 0-0.94075-1.1602-0.94472-2.5781-0.006-2.0503-0.82152-3.039-3.9844-4.8292-2.1874-1.2381-7.985-4.8867-12.883-8.108l-8.9062-5.857-10.268 0.7804c-5.6474 0.42921-10.61 0.56916-11.028 0.31098-0.41774-0.25818-2.0846 0.19161-3.7041 0.99954s-3.462 1.469-4.0942 1.469c-1.0131 0-32.12 15.489-33.205 16.534-0.23321 0.22453 2.298 2.8129 5.625 5.7519s7.7365 7.2061 9.799 9.4824c18.22 20.109 41.183 35.974 57.656 39.835 3.3516 0.78547 7.7812 1.8276 9.8438 2.3158 5.3338 1.2626 6.1394 1.2451 17.223-0.37431zm-418.17-6.9596c0.17593-0.52779 0.91753-0.95961 1.648-0.95961s1.3281-0.81885 1.3281-1.8197 0.42187-2.0804 0.9375-2.3991c2.0524-1.2684-0.07-14.01-2.2693-13.624-0.4747 0.0834-1.6208-1.8444-2.5468-4.284-2.0936-5.5153-2.7808-6.2057-6.6295-6.6597-14.562-1.7179-17.996 15.147-5.7081 28.035 3.2768 3.4369 12.277 4.6 13.24 1.711zm552.28-3.7345c10.875-5.548 10.127-23.066-1.1231-26.295-10.518-3.0185-19.1 2.3561-18.158 11.372 1.3553 12.967 10 19.658 19.281 14.923zm-461.69-2.9555c0.48985-0.45767 1.65-0.83213 2.5781-0.83213 0.92813 0 1.6875-0.32978 1.6875-0.73283s1.9391-1.3054 4.3091-2.0052c4.2458-1.2536 12.566-7.9543 12.566-10.12 0-0.57648 0.34097-1.1888 0.7577-1.3606 0.89093-0.36745 6.7423-8.7985 6.7423-9.7147 0-0.3448 0.61362-1.9563 1.3636-3.5811 5.1998-11.265 6.1251-15.61 3.3239-15.61-1.0312 0-1.875 0.37267-1.875 0.82816 0 0.45548-0.73828 1.0623-1.6406 1.3484-0.90234 0.28617-2.6953 1.1355-3.9844 1.8874-1.2891 0.75193-4.2422 2.0941-6.5625 2.9825-2.3203 0.88847-5.0625 1.9646-6.0938 2.3913-1.0312 0.42677-4.8281 1.8903-8.4375 3.2524-3.6094 1.362-7.8919 3.0717-9.5167 3.7993s-3.5232 1.3405-4.2188 1.362c-0.69552 0.0215-5.4833 1.5314-10.64 3.3554-5.1562 1.824-10.569 3.5467-12.028 3.8283-5.0719 0.97884 3.8272 14.34 9.5511 14.34 0.43084 0 1.7562 0.84375 2.9452 1.875s3.2575 1.8814 4.5966 1.8891c1.3391 0.007 4.1222 0.61857 6.1847 1.3574 3.6696 1.3144 6.6088 1.1255 8.3906-0.53935zm366.61-1.8057c11.108-3.2989 22.904-13.238 17.414-14.674-1.0698-0.27976-1.9451-0.88134-1.9451-1.3368 0-0.45549-0.59677-0.82816-1.3262-0.82816-2.2997 0-16.552-5.6408-27.268-10.792-35.08-16.863-35.9-17.188-34.877-13.818 2.2528 7.4268 6.482 18.047 7.1866 18.047 0.37694 0 1.0662 0.79569 1.5318 1.7682 3.9058 8.1598 17.674 20.014 26.628 22.927 2.0015 0.65111 8.2621 0.0111 12.656-1.2939zm-405.76-16.97c1.4422-0.58808 3.8878-1.5932 5.4347-2.2337 2.6599-1.1012 9.0383-3.2046 34.219-11.284 5.9297-1.9026 11.182-3.8286 11.672-4.28 0.48985-0.45139 1.5445-0.82524 2.3438-0.83076 5.5414-0.0383 41.995-23.179 42.182-26.777 0.0303-0.58168-2.0515-1.0616-4.9339-1.1374-2.7424-0.0722-8.704-0.7795-13.248-1.5719-4.5438-0.79238-9.6125-1.4407-11.264-1.4407-1.6512 0-3.318-0.31584-3.7041-0.70188-1.2621-1.2621-12.358-2.6383-15.632-1.9387-1.7586 0.37575-6.5724 1.133-10.697 1.6827-20.059 2.6732-41.39 9.657-66.807 21.872l-6.8068 3.2712 3.9943 2.3921c2.1969 1.3156 6.848 5.1552 10.336 8.5324 3.4879 3.3772 6.7372 6.1403 7.2205 6.1403 0.48334 0 2.3792 1.5449 4.2129 3.433 5.3949 5.555 7.5552 6.4721 11.478 4.8727zm439.83-0.89747c1.62-0.56 2.95-1.36 2.95-1.77 0-0.40929 1.1258-1.0267 2.5019-1.3721 4.6538-1.168 15.131-9.1874 17.205-13.169 1.0744-2.0625 2.558-4.8047 3.297-6.0938 3.6065-6.2915 2.1584-8.3012-8.9414-12.408-2.8359-1.0494-8.9531-3.716-13.594-5.9258-12.532-5.9675-27.041-10.709-33.195-10.847-9.6716-0.21737-27.58 0.1376-30.017 0.59497-1.3271 0.24908-6.6317 0.72346-11.788 1.0542-5.1562 0.33071-10.008 0.9225-10.781 1.3151-0.77344 0.39258-5.625 0.99354-10.781 1.3355-16.068 1.0655-16.27 1.4883-4.3419 9.0707 13.267 8.4336 15.73 9.8786 19.811 11.627 2.3203 0.99429 7.3356 3.397 11.145 5.3394 3.8095 1.9424 7.6064 3.545 8.4375 3.5614 0.83111 0.0164 2.3418 0.65785 3.3572 1.4254 1.0153 0.76759 3.4221 1.82 5.3484 2.3387s4.1241 1.5648 4.8839 2.3246 1.9506 1.3815 2.6461 1.3815c0.69553 0 2.0968 0.57198 3.1138 1.2711 1.0171 0.69909 4.1695 2.0199 7.0055 2.9351 2.8359 0.91521 6.2109 2.2143 7.5 2.8868 7.1438 3.7269 18.363 5.1749 24.235 3.1278zm-241.97-22.12c3.0845-3.2706 3.2342-3.7277 2.686-8.2031-1.9266-15.729-2.5352-22.593-2.1377-24.113 0.70659-2.702-1.5186-2.0302-4.9286 1.488-1.7101 1.7644-4.074 3.4501-5.2532 3.746-1.1792 0.29595-4.187 1.4613-6.684 2.5898-5.0307 2.2734-5.7096 2.4496-11.104 2.8823-2.0635 0.1655-4.1729 0.52883-4.6875 0.80739-0.51462 0.27856-5.7872 0.61501-11.717 0.74765-5.9297 0.13265-10.87 0.32946-10.979 0.43736-0.10884 0.10789 2.6334 1.4025 6.0938 2.8768 3.4604 1.4744 9.6666 4.8779 13.792 7.5634 22.175 14.437 28.414 16.076 34.92 9.1779zm79.379-9.7152 20.701-10.469-7.702 0.6355c-18.231 1.5043-35.896-0.21859-47.71-4.6531l-5.7241-2.1488-0.58669 8.9315c-1.4827 22.572 8.0734 24.367 41.022 7.7038zm254.53-13.45c2.7163-3.2729-0.72333-7.8299-5.0839-6.7354-2.304 0.57828-3.4796 5.6641-1.7166 7.427 1.1211 1.1211 5.681 0.65738 6.8006-0.69158zm-623.01-1.0119c2.1684-1.642 1.4513-3.8797-1.7041-5.3174-4.0958-1.8662-6.9042 2.0681-3.7371 5.2352 1.8009 1.8009 3.1447 1.8212 5.4412 0.0822zm634.76-16.572c4.7503-2.1644 2.5269-10.458-3.0938-11.541-4.0235-0.77484-5.3551 6.7331-1.855 10.459 2.3888 2.5427 1.9519 2.4472 4.9487 1.0818zm-649.2-3.5782c2.95-2.95 0.31292-6.4603-3.8586-5.1363-1.8558 0.58899-3.265 4.3518-2.2468 5.9992 0.98078 1.587 4.0958 1.1467 6.1054-0.86295zm368.47-6.1222c0.6137-0.3793 3.6941-0.86705 6.8454-1.0839 9.8381-0.67701 44.965-10 62.987-16.718 13.959-5.2034 26.513-9.5607 39.375-13.667 14.769-4.7151 23.708-7.9307 30.176-10.856 2.6751-1.2097 5.4979-2.1994 6.2728-2.1994 0.77494 0 1.6339-0.364 1.9089-0.8089 0.27496-0.44489 2.5147-1.3661 4.9772-2.0472 6.2534-1.7295 13.24-4.9042 20.501-9.3155 3.4094-2.0713 6.5117-3.7659 6.8942-3.7659 2.3201 0 10.372-9.4909 10.494-12.369 0.33528-7.931-1.8861-20.335-3.6728-20.509-0.37232-0.03628-4.7609-0.23889-9.7524-0.45019-4.9915-0.21129-11.065-0.83-13.496-1.3749-3.9464-0.8844-4.6391-0.78576-6.4537 0.91894-1.118 1.0503-2.5329 1.9097-3.1442 1.9097-0.61129 0-1.1114 0.42188-1.1114 0.9375s-0.79567 0.9375-1.7682 0.9375c-0.97249 0-4.2952 1.6875-7.3838 3.75s-5.9292 3.75-6.3123 3.75c-0.38316 0-3.1273 1.4766-6.0982 3.2812-2.9708 1.8047-6.0211 3.2812-6.7784 3.2812-0.75731 0-3.2334 1.258-5.5024 2.7954-2.269 1.5375-4.7031 2.8031-5.4091 2.8125-0.70598 0.009-3.87 1.5906-7.0312 3.5139s-7.0133 4.1753-8.5601 5.0044c-14.208 7.6161-18.444 9.9692-22.5 12.499-2.5781 1.6081-5.9447 3.5527-7.4813 4.3212-1.5366 0.76855-6.0227 3.5067-9.9692 6.0849-3.9465 2.5781-11.894 7.4297-17.661 10.781-5.7673 3.3516-11.863 6.9375-13.545 7.9688-1.6824 1.0312-6.5049 3.9594-10.717 6.5069-4.2117 2.5476-7.6577 4.9532-7.6577 5.3459 0 0.39268-3.1619 2.2985-7.0264 4.2352s-8.1887 4.466-9.6094 5.6207l-2.583 2.0994 4.8385-1.2503c2.6612-0.6877 5.3406-1.5607 5.9544-1.94zm-84.905 0.556c0.29146-0.47158-1.0547-1.8196-2.9915-2.9955s-3.8588-2.6885-4.2712-3.3613c-0.41234-0.67281-1.2163-1.2233-1.7865-1.2233-0.57023 0-2.3422-0.97813-3.9378-2.1736-1.5955-1.1955-5.4322-3.6002-8.526-5.3438s-7.5234-4.5102-9.8438-6.1481c-2.3203-1.6379-5.4844-3.6271-7.0312-4.4204-1.5469-0.79335-3.6562-2.2378-4.6875-3.21-1.0312-0.97213-2.5078-2.0673-3.2812-2.4336-0.77344-0.36637-2.5504-1.3998-3.9489-2.2964-6.292-4.0343-25.075-15.224-25.555-15.224-0.29319 0-2.3176-1.1332-4.4988-2.5181-2.1812-1.385-12.614-6.9161-23.184-12.291-10.57-5.3754-19.885-10.359-20.699-11.076-0.81404-0.71623-1.8234-1.3022-2.2431-1.3022-0.41965 0-6.6035-3.1641-13.742-7.0312-7.1384-3.8672-13.982-7.0312-15.209-7.0312-1.2264 0-3.2848-0.82993-4.5744-1.8443s-2.635-1.5539-2.9899-1.199-0.93874 0.22587-1.2974-0.28673c-1.9715-2.8175-15.159-8.5394-16.115-6.9922-0.30323 0.49063-2.3549 1.5284-4.5594 2.3062-2.2044 0.77777-5.2055 2.2668-6.669 3.3089s-2.9423 1.8947-3.2863 1.8947c-5.0139 0-3.119 18.294 2.4484 23.638 10.488 10.068 19.814 15.948 27.156 17.123 2.2678 0.36304 7.4983 2.0432 11.623 3.7338 22.911 9.3894 70.775 26.674 79.219 28.608 1.8047 0.41324 6.0234 1.6815 9.375 2.8183s9.0469 2.8476 12.656 3.8018c3.6094 0.95422 10.359 2.8502 15 4.2133 4.6406 1.3631 9.2812 2.597 10.312 2.7421 1.0312 0.14504 2.9297 0.68344 4.2188 1.1964 1.2891 0.513 4.2422 1.2203 6.5625 1.5718 2.3203 0.35151 6.5391 1.4499 9.375 2.4409 6.0093 2.0999 6.2812 2.1391 6.9818 1.0056zm-242.15-10.63c0.33395-0.53316 1.4909-0.73827 2.571-0.4558 1.9964 0.52206 9.8252-1.4351 11.72-2.9299 0.5718-0.45116 2.7271-1.124 4.7896-1.4952 2.0625-0.37118 4.1719-1.0074 4.6875-1.4138 0.51562-0.40637 1.9922-1.0352 3.2812-1.3973 2.032-0.57086 6.1308-2.1193 22.5-8.5002 1.8047-0.70348 5.918-2.2028 9.1406-3.3318 5.2976-1.856 5.8594-2.3036 5.8594-4.6694 0-4.5336-6.5801-21.453-8.795-22.615-1.0924-0.57294-3.9308-2.6571-6.3075-4.6314l-4.3212-3.5897-6.6003 1.829c-3.6302 1.006-7.5919 2.2072-8.8038 2.6694-1.212 0.46223-3.891 1.3512-5.9535 1.9756-2.0625 0.62433-5.0156 1.6913-6.5625 2.371s-8.0859 3.374-14.531 5.9874c-6.4453 2.6133-16.127 7.0029-21.515 9.7545l-9.7959 5.003-1.2579 4.635c-2.9216 10.765-0.1361 19.849 6.7355 21.964 3.5678 1.0983 22.333 0.15853 23.159-1.1597zm579.59-0.37463c1.9984-0.69485 4.3539-1.2634 5.2344-1.2634 4.6514 0 8.7728-5.8824 8.8608-12.647l0.0838-6.4433-27.287-13.789c-40.21-20.32-43.018-21.082-53.964-14.634-3.7809 2.2272-8.2454 4.6505-9.9212 5.3851-1.6758 0.73459-3.0469 1.5824-3.0469 1.884 0 0.30162-2.1094 1.5364-4.6875 2.7439-4.0278 1.8865-6.3576 4.6875-3.899 4.6875 0.43368 0 1.8928 2.029 3.2425 4.5088 2.9494 5.4191 6.626 9.5537 8.4954 9.5537 0.75123 0 6.5722 2.077 12.935 4.6155 6.3632 2.5386 14.414 5.5273 17.891 6.6417s6.5605 2.4124 6.8522 2.8845c0.29174 0.47204 1.3404 0.85825 2.3304 0.85825 0.98997 0 5.0784 1.122 9.0853 2.4934 13.839 4.7363 19.852 5.2815 27.794 2.52zm-628.95-18.771c6.7031-3.3665 12.82-6.4558 13.594-6.8651 6.4141-3.3942 28.953-14.065 29.708-14.065 0.52585 0 5.131-1.9525 10.234-4.339 8.0162-3.7491 27.508-11.664 32.481-13.189 2.7566-0.84547 1.8338-3.1148-1.875-4.6108-4.408-1.7781-10.442-4.6979-12.866-6.226-1.0179-0.64156-4.2645-2.7134-7.2146-4.6042l-5.3639-3.4377-8.7229 3.2272c-4.7976 1.775-10.511 4.0602-12.697 5.0783-2.1858 1.0181-4.1983 1.8511-4.4722 1.8511-0.27394 0-3.9699 1.6332-8.2133 3.6294s-8.77 3.9439-10.059 4.3283c-8.0958 2.4142-29.951 14.552-35.625 19.785-1.2891 1.1889-3.2707 3.0046-4.4037 4.035-4.3017 3.9121-4.8733 12.074-1.1749 16.776 5.578 7.0913 10.303 6.8481 26.672-1.3732zm687.81 1.851c5.5515-5.5515 3.4642-17.593-4.1421-23.894-1.6724-1.3855-4.3064-3.5271-5.8533-4.7592-4.9015-3.904-30.603-15.808-39.375-18.238-4.6406-1.2851-10.758-3.1808-13.594-4.2125-2.8359-1.0318-7.0547-2.4166-9.375-3.0775-2.3203-0.66083-7.582-2.3038-11.693-3.651-9.6447-3.1609-8.9837-3.2806-14.751 2.6717-15.103 15.586-16.159 13 10.975 26.859 41.128 21.006 48.951 24.509 63.75 28.54 3.0938 0.84284 6.8906 1.893 8.4375 2.3338 5.7438 1.6365 12.528 0.51885 15.62-2.5733zm-717.07-42.14c4.236-2.3945 7.9128-4.6446 8.1706-5.0002 0.52941-0.73022 9.8783-5.1106 18.198-8.5269 10.33-4.2414 20.154-16.61 16.597-20.896-1.586-1.911-23.062 2.3519-37.814 7.5058-3.4766 1.2147-6.7713 2.2085-7.3215 2.2085-0.55021 0-2.7468 0.84375-4.8812 1.875s-4.5937 1.875-5.4649 1.875c-0.87127 0-2.082 0.59983-2.6904 1.333-0.60845 0.73312-2.875 1.6255-5.0367 1.9831-2.1617 0.35755-5.5917 1.4452-7.6221 2.417-2.031 0.96-4.668 1.76-5.86 1.76-1.1922 0-2.1677 0.42188-2.1677 0.9375 0 0.51563 0.4688 0.9375 1.0418 0.9375 0.57297 0 2.9988 1.6179 5.3906 3.5953 4.7734 3.9463 14.784 10.809 17.005 11.657 2.9813 1.1388 5.0041 0.54298 12.454-3.6684zm737.81-3.1464c1.7314 0 10.051-6.1576 10.051-7.439 0-0.92599-6.7056-4.3838-13.959-7.1981-3.4085-1.3225-7.6739-3.0723-9.4786-3.8885-15.512-7.0154-49.688-17.869-49.688-15.78 0 12.666 14.094 24.179 42.656 34.843 2.5781 0.96262 6.1612 2.462 7.9624 3.332 3.2421 1.566 3.3121 1.5545 6.9816-1.1441 2.0386-1.4992 4.5017-2.7259 5.4735-2.7259zm-779.8-10.3c0.51562-0.39298 1.9922-1.024 3.2812-1.4023 1.2891-0.37827 3.6094-1.219 5.1562-1.8683 1.5469-0.64928 4.7109-1.733 7.0312-2.4083 2.3203-0.67531 4.6406-1.5084 5.1562-1.8513 1.7511-1.1646 24.327-8.306 35.156-11.121 5.9297-1.5414 13.312-3.4958 16.406-4.3432 3.0938-0.84739 9-2.4029 13.125-3.4566s7.7109-2.1934 7.9688-2.5327c0.25781-0.33923 2.4516-0.60267 4.875-0.58542 5.8542 0.04167 6.4338-0.76612 6.9076-9.6271 0.22233-4.1588 0.77591-8.5385 1.2302-9.7327l0.82588-2.1713-11.841 0.29314c-17.541 0.43426-50.903 4.3848-69.029 8.174-8.7656 1.8325-17.302 3.5788-18.969 3.8807-1.6675 0.30188-3.5122 1.1276-4.0992 1.8349-0.58702 0.70731-2.3867 1.3063-3.9994 1.3311-14.354 0.22044-20.087 22.74-8.7672 34.436 2.9601 3.0584 6.5207 3.4857 9.5851 1.1502zm810.68-0.34299c5.4-2.42 11.98-8.842 11.98-11.702 0-0.99058 0.62873-2.3229 1.3972-2.9606 2.2007-1.8264-0.84421-10.773-4.813-14.141-11.39-9.669-71.74-21.399-107.2-20.836-18.58 0.29508-19.317 0.61132-15.95 6.8451 0.9747 1.8047 2.4964 4.9121 3.3814 6.9054 1.619 3.646 5.1779 5.9152 10.669 6.8024 1.3028 0.21052 4.0563 0.9692 6.1188 1.686 2.0625 0.71676 5.0156 1.5698 6.5625 1.8957 3.9416 0.83032 17.503 4.9712 25.312 7.7292 3.6094 1.2746 8.5792 2.937 11.044 3.6942 2.4649 0.75719 7.5274 2.7727 11.25 4.4789s10.143 4.5713 14.268 6.367c4.125 1.7956 8.5547 3.726 9.8438 4.2896 4.0322 1.7631 10.826 1.3171 16.145-1.0598zm4.4706-40.012c-6.45-25.095-36.65-38.883-71.65-32.72-17.75 3.125-36.24 8.129-51.37 13.901l-2.5635 0.97798 2.0283 3.4377 2.0283 3.4377 11.316-0.62006c29.637-1.6239 84.391 6.7647 105.54 16.169 6.4927 2.8876 6.5797 2.8023 4.6782-4.5898zm-811.97-1.789c16.645-4.327 24.698-5.9883 38.546-7.9519 13.346-1.8924 39.03-4.2358 54.141-4.9398 11.796-0.54958 12.423-0.67763 12.435-2.5435 0.007-1.0806 0.26218-2.8949 0.56698-4.0317 0.43868-1.6361 0.0941-2.161-1.6534-2.5184-46.73-9.556-78.03-10.702-93.101-3.408-2.159 1.045-4.274 1.9-4.699 1.9-1.146 0-11.76 11.198-11.76 12.408 0 0.57118-0.68725 1.7979-1.5272 2.7261-0.83997 0.92816-1.838 3.3872-2.2179 5.4644l-0.691 3.776h3.281c1.8045 0 4.8065-0.39656 6.671-0.88126zm638.84-3.366c6.7176-2.2294 9.5958-12.628 3.4953-12.628-0.96694 0-11.571 5.5267-12.623 6.5792-0.50645 0.50646-1.6802 0.92083-2.6083 0.92083-2.2182 0-2.1287 1.2057 0.4179 5.6305 1.8967 3.2957 2.2916 3.5418 3.9844 2.4832 1.0334-0.64625 4.3338-1.9897 7.3341-2.9854zm-681.86-10.219c7.834-6.941 10.483-12.449 8.327-17.32-1.88-4.247-9.769-5.461-12.763-1.964-0.88298 1.0312-2.0789 1.875-2.6575 1.875-1.3034 0-6.0312 3.9843-6.0312 5.0827 0 0.44236-0.73828 1.3441-1.6406 2.004-2.7732 2.0278-2.2977 11.16 0.6917 13.286 5.2701 3.7479 6.8819 3.4085 14.074-2.9634zm204.44 1.9945 2.4085-3.9746-9.2053-3.361-9.2053-3.361v2.281c0 1.2788-1.2221 3.5031-2.7816 5.0627-1.754 1.754-2.3601 2.9298-1.6406 3.1827 3.8168 1.3416 14.564 4.0766 16.141 4.1077 1.2225 0.02409 2.7132-1.3462 4.2835-3.9376zm690.22 1.5874c8.5611-4.0825 6.6264-13.869-4.3354-21.93-5.9366-4.3658-13.518-3.8528-16.779 1.1355-3.3457 5.1177-2.5314 7.4401 5.6078 15.994 1.633 1.7162 7.7635 5.2582 9.76 5.6389 1.1973 0.22832 2.268 0.47258 2.3794 0.5428 0.11141 0.07022 1.6265-0.55135 3.3668-1.3813zm-743.72-14.3c0-1.2392-9.0428-7.3398-14.062-9.4871-1.2891-0.55144-3.6094-1.593-5.1562-2.3145-8.3475-3.8938-10.823-4.6628-16.172-5.0238-12.391-0.83631-2.7419 9.6143 11.016 11.931 3.8672 0.6511 8.2969 1.3991 9.8438 1.6622 1.5469 0.26314 3.523 0.85851 4.3915 1.3231 0.86845 0.46454 2.6365 0.84462 3.929 0.84462s2.6108 0.42188 2.9295 0.9375c0.70963 1.1482 3.2812 1.2481 3.2812 0.1275zm610.31-6.261c8.1627-1.9296 15.888-10.742 9.4171-10.742-3.0845 0-25.992 13.176-27.693 15.929-0.30292 0.49013 2.1032-0.10249 5.3469-1.3169s9.0617-2.956 12.929-3.8702zm-656.25-2.304c0-0.51562-0.38653-0.9375-0.85896-0.9375s-3.9529-2.068-7.7344-4.5955c-7.0471-4.7102-16.163-8.1062-18.921-7.0481-2.9076 1.1158-2.4989 1.6847 5.4098 7.5297 3.9967 2.9538 5.754 3.5658 13.125 4.5705 4.6808 0.63803 8.6159 1.2182 8.7448 1.2892 0.12 0.071 0.23-0.292 0.23-0.808zm234.44-9.3604c-2.1614-4.1544-4.1049-8.463-4.319-9.5746-0.21408-1.1116-0.8684-2.474-1.4541-3.0274-0.78741-0.74416-0.88075-0.39574-0.35828 1.3374 1.1047 3.6645 9.1417 19.738 9.6268 19.252 0.23887-0.23887-1.3341-3.8334-3.4955-7.9878zm456.5 4.2876c8.6808-1.3685 12.507-2.6126 14.662-4.7674 5.164-5.164-8.5369-3.5615-20.985 2.4543-7.8227 3.7806-6.366 4.3135 6.3229 2.3131z"/>
</g>
</svg>
